<?xml version="1.0" encoding="UTF-8"?>
<svg xmlns="http://www.w3.org/2000/svg" width="538" height="420" viewBox="0 0 538 420">
  <path d="M 172.75 331.44 L 171.75 331.22 L 170.50 330.72 L 168.50 330.65 L 167.25 330.06 L 165.50 329.97 L 164.25 329.60 L 162.15 329.25 L 161.25 328.88 L 160.75 328.85 L 159.25 327.89 L 157.50 327.73 L 155.67 327.25 L 154.25 326.68 L 152.00 326.32 L 151.00 325.78 L 148.61 325.25 L 147.25 324.54 L 144.50 324.02 L 143.25 323.31 L 142.50 323.26 L 141.69 322.75 L 140.50 322.35 L 139.35 321.75 L 136.50 321.25 L 136.01 320.50 L 135.42 320.00 L 133.75 319.80 L 132.75 319.53 L 131.25 318.59 L 128.50 317.89 L 127.56 317.25 L 127.10 316.75 L 125.50 316.31 L 124.75 315.75 L 123.50 315.29 L 122.25 314.52 L 121.50 314.31 L 119.84 313.50 L 119.50 313.25 L 119.25 312.64 L 117.50 312.29 L 115.09 310.75 L 113.60 310.25 L 113.15 309.75 L 112.25 309.32 L 111.25 308.31 L 110.50 308.20 L 108.64 307.25 L 107.00 306.00 L 105.60 305.25 L 105.20 304.75 L 104.25 304.30 L 103.25 303.48 L 102.50 303.31 L 100.98 302.25 L 100.25 301.43 L 99.25 300.71 L 98.50 300.36 L 96.88 299.00 L 95.50 298.25 L 95.00 297.75 L 93.97 297.25 L 93.62 296.50 L 91.77 295.25 L 91.25 294.65 L 90.50 294.26 L 89.00 292.86 L 88.09 292.25 L 87.06 290.75 L 86.50 290.76 L 85.44 290.25 L 85.04 289.75 L 84.41 289.25 L 84.26 288.50 L 83.50 288.12 L 83.00 287.61 L 82.50 287.38 L 82.04 286.75 L 81.50 286.42 L 81.00 285.56 L 80.60 285.25 L 80.25 284.73 L 79.52 284.25 L 79.25 283.69 L 79.00 283.49 L 78.50 283.47 L 77.75 282.99 L 76.44 281.25 L 76.36 280.50 L 74.71 279.25 L 74.00 278.15 L 72.11 276.25 L 71.23 274.75 L 70.22 274.25 L 69.46 273.25 L 69.25 272.44 L 68.50 271.74 L 67.85 270.75 L 67.00 269.81 L 66.30 269.25 L 65.53 268.25 L 65.00 267.08 L 63.66 265.50 L 63.54 265.25 L 63.50 264.46 L 63.25 264.14 L 62.50 263.93 L 61.85 262.50 L 60.84 261.00 L 59.39 259.25 L 58.59 258.00 L 58.17 256.50 L 57.46 256.00 L 56.93 254.75 L 56.44 254.25 L 55.75 253.22 L 55.25 251.56 L 54.50 251.16 L 53.50 249.30 L 53.44 248.50 L 52.31 246.25 L 52.07 245.50 L 51.26 244.25 L 51.00 243.56 L 50.56 243.00 L 49.65 241.25 L 49.52 240.50 L 48.85 238.75 L 48.50 238.23 L 47.12 234.75 L 46.67 234.00 L 46.45 233.25 L 46.40 232.50 L 45.92 231.50 L 45.04 228.50 L 43.77 226.00 L 43.00 222.20 L 42.50 221.24 L 42.00 219.75 L 41.57 219.00 L 40.92 214.25 L 40.10 212.00 L 39.59 209.25 L 39.59 208.50 L 39.19 207.25 L 39.06 206.00 L 38.57 205.00 L 38.42 204.25 L 38.12 200.50 L 37.44 199.25 L 37.14 193.50 L 36.91 192.00 L 36.92 190.50 L 36.62 189.00 L 36.37 184.50 L 36.18 183.25 L 36.11 168.50 L 36.32 167.25 L 36.58 160.50 L 36.91 159.25 L 37.12 157.25 L 37.32 152.50 L 37.92 151.00 L 38.65 144.75 L 38.76 144.50 L 39.25 144.08 L 39.59 143.25 L 39.60 142.50 L 40.37 139.00 L 40.68 136.50 L 41.21 135.25 L 41.50 132.70 L 42.21 131.25 L 42.39 130.50 L 42.93 129.50 L 43.12 128.25 L 43.52 127.25 L 43.59 126.50 L 44.00 125.67 L 44.61 123.75 L 45.32 122.25 L 46.27 119.25 L 46.47 117.75 L 47.25 116.71 L 47.62 115.50 L 48.48 113.50 L 48.83 113.00 L 49.45 111.25 L 49.57 110.50 L 50.99 108.00 L 51.61 106.50 L 52.00 105.97 L 52.54 104.50 L 53.48 103.25 L 53.52 102.50 L 54.50 100.46 L 55.00 100.28 L 55.25 100.02 L 55.70 98.50 L 56.76 97.00 L 57.38 95.75 L 58.00 95.16 L 58.47 93.50 L 58.99 93.00 L 59.86 91.75 L 60.48 90.50 L 60.93 90.00 L 61.36 89.25 L 61.75 88.33 L 62.50 87.53 L 63.25 87.31 L 63.63 85.50 L 64.42 84.50 L 65.00 83.99 L 65.75 82.57 L 67.05 81.25 L 67.53 80.25 L 68.68 79.25 L 68.84 79.00 L 68.85 78.50 L 69.40 77.50 L 70.50 76.38 L 71.00 76.33 L 71.25 76.18 L 71.53 75.50 L 72.25 74.50 L 73.00 73.82 L 73.75 72.59 L 75.06 71.25 L 75.37 70.50 L 77.00 69.00 L 78.50 66.93 L 79.25 66.61 L 80.06 65.50 L 81.50 64.08 L 82.63 63.25 L 83.35 62.25 L 84.81 61.00 L 86.13 59.50 L 86.50 59.22 L 87.25 59.00 L 88.42 57.50 L 89.23 57.00 L 89.50 56.42 L 91.40 55.25 L 91.68 54.50 L 92.50 53.73 L 93.64 53.00 L 94.50 52.19 L 95.01 52.00 L 96.43 50.50 L 97.25 50.00 L 97.50 49.60 L 98.78 49.00 L 100.50 47.52 L 101.27 47.25 L 101.69 46.50 L 102.50 45.86 L 103.25 45.60 L 104.50 44.54 L 105.25 44.34 L 106.50 43.42 L 107.25 43.09 L 109.50 41.35 L 111.25 40.77 L 111.95 40.00 L 113.37 39.25 L 113.82 38.50 L 116.89 37.00 L 117.50 36.46 L 119.25 35.89 L 119.75 35.43 L 122.25 34.17 L 123.50 33.38 L 124.60 33.00 L 125.75 32.17 L 126.50 31.95 L 127.25 31.90 L 129.50 30.48 L 132.75 29.06 L 133.50 28.42 L 135.00 28.09 L 135.75 27.67 L 137.75 27.21 L 138.75 26.57 L 140.55 26.00 L 141.50 25.46 L 143.25 25.22 L 144.25 24.63 L 145.77 24.25 L 146.75 23.69 L 149.00 23.15 L 149.34 23.00 L 149.78 22.50 L 153.50 21.96 L 154.75 21.46 L 156.25 21.14 L 157.50 20.63 L 159.25 20.50 L 160.50 19.97 L 165.00 19.06 L 165.75 18.74 L 166.50 18.59 L 170.29 18.25 L 172.75 17.62 L 175.25 17.40 L 176.50 17.15 L 183.25 16.97 L 184.75 16.40 L 191.50 16.12 L 199.25 16.11 L 207.00 16.33 L 208.75 16.63 L 211.25 16.74 L 212.50 17.00 L 215.25 17.05 L 216.50 17.39 L 219.00 17.55 L 221.50 18.19 L 223.25 18.36 L 224.50 18.65 L 226.00 18.80 L 227.50 19.18 L 231.25 19.68 L 232.50 20.44 L 235.00 20.63 L 236.50 21.21 L 238.00 21.53 L 238.75 21.83 L 240.25 21.96 L 242.25 22.44 L 242.82 23.00 L 243.29 23.25 L 245.00 23.64 L 246.50 24.37 L 248.25 24.70 L 248.75 25.07 L 250.25 25.38 L 251.50 26.05 L 253.17 26.50 L 253.93 27.00 L 255.25 27.31 L 256.50 28.05 L 257.25 28.10 L 258.25 28.40 L 260.75 29.81 L 263.25 30.63 L 263.70 31.25 L 264.25 31.69 L 266.25 32.10 L 267.02 32.50 L 267.75 33.10 L 269.18 33.50 L 270.29 34.25 L 271.25 34.47 L 272.50 35.51 L 273.25 35.60 L 275.02 36.50 L 275.55 37.00 L 278.16 38.50 L 278.42 39.00 L 278.72 39.25 L 279.50 39.52 L 280.50 40.35 L 281.25 40.55 L 283.50 42.20 L 284.25 42.46 L 284.83 43.00 L 286.00 43.53 L 286.50 44.03 L 287.50 44.49 L 288.50 45.40 L 289.25 45.72 L 290.18 46.50 L 290.63 47.25 L 292.00 47.93 L 293.30 49.00 L 294.25 49.48 L 294.65 50.00 L 295.43 50.50 L 296.09 51.25 L 296.50 51.55 L 297.25 51.78 L 298.12 52.50 L 298.72 53.25 L 300.25 54.25 L 300.75 55.05 L 302.25 56.05 L 302.91 57.00 L 304.25 58.25 L 305.25 58.73 L 306.25 59.73 L 306.92 60.75 L 308.02 61.50 L 309.01 62.50 L 309.30 63.25 L 311.75 65.44 L 312.50 66.49 L 313.25 66.86 L 314.02 68.00 L 314.75 68.83 L 316.38 70.25 L 316.82 71.25 L 318.25 72.48 L 318.67 73.25 L 319.25 73.57 L 320.72 76.00 L 321.36 76.25 L 322.54 77.50 L 323.04 78.50 L 323.05 79.00 L 323.20 79.25 L 324.25 80.04 L 325.58 82.00 L 326.10 82.50 L 326.75 83.79 L 327.53 84.50 L 328.23 85.50 L 328.50 86.19 L 330.18 88.50 L 330.50 89.33 L 331.55 90.50 L 332.25 91.50 L 332.50 92.29 L 334.13 94.50 L 334.34 95.25 L 334.74 96.00 L 335.13 96.50 L 335.47 97.25 L 335.97 97.75 L 336.50 99.43 L 337.25 100.17 L 338.19 101.50 L 338.48 103.25 L 339.25 103.79 L 340.75 107.81 L 341.29 108.50 L 341.54 109.25 L 342.25 110.41 L 342.36 111.25 L 343.14 112.50 L 343.71 114.00 L 344.07 114.50 L 344.50 116.12 L 345.29 116.75 L 345.56 117.75 L 345.70 119.25 L 346.45 120.50 L 346.71 122.25 L 347.40 123.50 L 347.75 124.60 L 348.24 125.50 L 348.41 127.25 L 349.14 128.50 L 349.46 130.25 L 350.30 132.50 L 350.67 135.25 L 351.16 136.50 L 351.89 139.50 L 352.29 143.25 L 352.50 143.58 L 353.00 143.82 L 353.27 144.50 L 353.53 147.25 L 354.21 150.00 L 354.28 151.25 L 354.52 152.50 L 354.67 155.25 L 355.06 156.75 L 355.26 159.25 L 355.48 160.50 L 355.71 168.50 L 355.74 183.25 L 355.42 191.25 L 355.08 192.75 L 354.94 195.00 L 354.62 196.50 L 354.56 199.00 L 354.40 199.50 L 353.70 200.50 L 353.54 203.25 L 352.81 207.25 L 352.01 208.50 L 352.01 210.25 L 351.81 212.25 L 350.46 216.50 L 350.33 218.00 L 350.09 219.00 L 349.45 220.50 L 349.27 221.25 L 348.75 222.23 L 348.56 223.50 L 348.34 224.00 L 347.75 224.75 L 347.35 227.00 L 346.75 228.18 L 346.19 230.00 L 345.83 230.75 L 345.20 233.25 L 344.75 233.56 L 344.13 235.25 L 342.74 237.50 L 342.25 239.37 L 341.25 240.50 L 340.88 242.25 L 340.12 244.00 L 338.75 246.20 L 338.55 247.25 L 337.51 248.50 L 337.25 249.90 L 336.50 250.57 L 335.55 252.50 L 335.37 253.25 L 334.75 253.98 L 334.27 255.25 L 333.33 256.50 L 333.10 257.25 L 331.87 259.00 L 331.38 260.25 L 330.28 262.00 L 330.00 262.23 L 328.75 262.60 L 327.75 262.44 L 326.50 261.59 L 326.21 261.25 L 326.06 260.50 L 326.16 259.50 L 326.50 258.82 L 327.50 257.97 L 327.93 257.25 L 328.05 256.50 L 329.15 255.25 L 329.40 253.50 L 331.00 251.52 L 331.34 250.50 L 332.18 249.25 L 332.57 248.00 L 333.29 247.25 L 333.56 245.50 L 334.50 243.92 L 335.25 243.29 L 335.43 242.50 L 336.15 241.25 L 336.41 240.50 L 337.28 239.25 L 337.61 237.75 L 338.11 237.00 L 339.05 235.00 L 339.50 233.53 L 340.46 231.25 L 340.53 230.50 L 341.00 229.74 L 341.43 228.50 L 342.12 227.25 L 342.75 224.57 L 343.50 223.87 L 343.86 223.25 L 343.96 221.75 L 344.19 220.75 L 344.55 219.75 L 345.00 219.00 L 345.21 218.25 L 345.38 216.50 L 346.25 215.25 L 346.47 212.75 L 347.09 211.25 L 347.55 208.50 L 348.24 207.25 L 348.51 203.75 L 349.02 202.25 L 349.09 200.50 L 349.59 199.25 L 349.73 196.75 L 350.06 195.25 L 350.23 192.50 L 350.58 191.25 L 350.63 189.50 L 351.11 186.25 L 351.13 184.50 L 351.46 183.25 L 351.47 168.50 L 351.28 167.25 L 351.09 163.50 L 350.71 162.00 L 350.63 160.50 L 350.29 159.25 L 350.12 156.50 L 349.74 155.00 L 349.55 152.50 L 349.15 149.50 L 348.56 147.25 L 348.38 144.50 L 347.61 142.00 L 347.25 140.30 L 346.76 139.00 L 346.50 137.56 L 346.45 136.50 L 345.66 134.25 L 345.25 132.37 L 344.36 130.25 L 344.14 128.50 L 343.54 127.25 L 343.25 125.31 L 343.00 124.80 L 342.50 124.33 L 341.60 122.00 L 341.48 120.50 L 340.54 119.25 L 340.15 117.50 L 339.50 116.22 L 339.00 114.82 L 338.50 114.11 L 338.13 112.75 L 337.50 111.76 L 337.00 110.22 L 336.23 109.25 L 335.25 106.73 L 335.00 106.42 L 334.50 106.22 L 334.06 104.75 L 333.60 104.00 L 333.25 102.69 L 332.50 101.82 L 331.58 100.25 L 331.00 98.88 L 330.34 98.00 L 329.89 96.75 L 329.31 96.00 L 328.75 94.75 L 327.66 93.25 L 327.25 92.09 L 327.00 91.87 L 326.50 91.80 L 325.28 90.25 L 324.73 89.25 L 324.77 88.75 L 324.66 88.50 L 323.53 87.25 L 323.25 86.50 L 321.50 84.45 L 321.02 83.50 L 320.50 83.07 L 319.24 81.25 L 319.08 80.75 L 318.50 80.57 L 317.46 79.25 L 317.25 78.67 L 316.50 78.04 L 315.00 75.93 L 313.50 74.48 L 312.50 73.32 L 312.37 72.50 L 311.00 71.09 L 309.62 70.25 L 309.24 69.75 L 308.62 69.25 L 308.29 68.50 L 307.67 67.75 L 306.75 67.24 L 305.52 66.25 L 305.03 65.50 L 304.70 65.25 L 304.35 64.50 L 302.75 63.23 L 302.25 62.59 L 301.50 62.15 L 301.00 61.55 L 300.50 61.30 L 300.00 60.65 L 299.50 60.34 L 297.83 58.75 L 296.24 57.50 L 296.04 57.25 L 295.88 56.50 L 295.50 56.07 L 295.25 55.92 L 294.50 55.82 L 293.75 55.39 L 293.00 54.51 L 292.50 54.24 L 292.00 53.78 L 290.75 53.14 L 290.25 52.53 L 289.75 52.25 L 289.25 51.69 L 288.50 51.39 L 287.25 50.30 L 286.50 49.99 L 285.52 49.25 L 285.29 48.75 L 285.02 48.50 L 283.75 47.97 L 283.31 47.50 L 282.50 47.06 L 282.25 46.75 L 281.50 46.40 L 280.74 45.75 L 279.75 45.22 L 279.25 44.58 L 277.75 44.23 L 275.79 42.75 L 274.50 42.19 L 273.55 41.50 L 272.50 41.00 L 272.22 40.50 L 271.25 39.83 L 270.50 39.75 L 269.75 39.49 L 268.79 38.75 L 267.50 38.23 L 265.07 36.75 L 263.75 36.26 L 263.00 35.76 L 261.14 35.25 L 260.00 34.55 L 258.50 34.08 L 257.25 33.36 L 256.50 33.15 L 256.07 32.50 L 255.25 31.93 L 253.50 31.72 L 252.50 31.38 L 251.25 30.68 L 248.50 30.00 L 247.25 29.23 L 245.75 29.12 L 244.26 28.50 L 242.75 28.13 L 242.00 27.66 L 240.50 27.36 L 239.25 26.51 L 237.50 26.46 L 235.75 26.22 L 234.25 25.61 L 231.75 25.23 L 231.43 24.75 L 231.02 24.50 L 228.50 24.20 L 227.00 23.72 L 224.50 23.44 L 223.00 22.86 L 216.50 22.31 L 215.25 22.03 L 213.75 21.95 L 212.25 21.61 L 208.50 21.32 L 207.00 21.06 L 202.75 20.95 L 201.25 20.72 L 192.75 20.68 L 191.00 20.96 L 181.75 21.44 L 180.50 21.58 L 179.00 22.00 L 171.50 22.67 L 170.00 23.09 L 168.50 23.17 L 167.25 23.51 L 164.50 23.87 L 162.16 24.50 L 161.25 24.98 L 160.25 25.28 L 157.50 25.64 L 156.00 26.26 L 152.73 26.75 L 151.75 27.38 L 149.96 27.75 L 149.00 28.23 L 147.75 28.57 L 147.00 28.91 L 146.00 29.17 L 144.50 29.26 L 143.25 30.27 L 141.50 30.56 L 138.25 32.06 L 136.34 32.25 L 135.92 32.50 L 135.25 33.34 L 133.75 33.80 L 131.75 34.65 L 130.25 35.51 L 128.75 35.87 L 127.25 37.11 L 125.75 37.64 L 125.00 38.17 L 123.75 38.60 L 123.00 39.21 L 122.25 39.61 L 121.50 39.87 L 120.50 39.95 L 120.25 40.07 L 119.81 40.50 L 119.51 41.25 L 119.25 41.44 L 118.50 41.61 L 114.99 43.75 L 114.25 44.36 L 112.50 44.96 L 111.25 46.29 L 109.95 46.75 L 108.25 48.07 L 107.33 48.50 L 106.89 49.25 L 105.25 50.39 L 104.50 50.48 L 103.97 51.25 L 102.50 52.01 L 101.75 52.65 L 101.31 53.25 L 100.25 54.12 L 98.75 54.87 L 98.00 55.87 L 97.25 56.19 L 96.50 56.26 L 96.23 56.50 L 96.11 57.25 L 95.48 58.00 L 94.14 58.75 L 90.86 61.75 L 89.25 63.48 L 88.75 63.53 L 88.35 63.75 L 87.72 64.50 L 87.34 65.25 L 85.75 66.70 L 85.38 67.25 L 84.69 67.75 L 83.25 69.38 L 82.75 69.71 L 81.69 70.75 L 81.25 71.34 L 80.20 72.00 L 79.84 72.50 L 79.73 73.25 L 79.35 74.00 L 78.59 74.50 L 78.19 75.00 L 77.20 75.75 L 76.54 76.50 L 76.13 77.25 L 74.67 78.75 L 74.14 80.00 L 73.52 80.75 L 73.32 81.25 L 72.50 81.61 L 71.42 83.25 L 70.75 83.84 L 70.00 85.23 L 68.75 86.67 L 68.25 87.84 L 67.50 88.50 L 67.32 89.25 L 66.75 89.88 L 66.09 91.25 L 65.38 92.25 L 64.56 92.75 L 64.35 93.25 L 63.44 94.50 L 62.37 96.50 L 62.25 97.30 L 60.75 99.22 L 60.35 100.25 L 59.25 102.16 L 58.75 102.72 L 58.25 104.18 L 57.86 104.75 L 57.27 106.25 L 56.75 106.45 L 56.50 106.72 L 55.92 109.25 L 55.36 110.25 L 54.75 110.78 L 54.25 112.08 L 53.75 112.71 L 53.09 115.00 L 51.50 118.46 L 51.41 119.25 L 50.45 120.50 L 50.31 122.25 L 49.68 123.75 L 49.25 125.39 L 48.75 126.50 L 48.81 127.00 L 47.73 128.50 L 47.56 130.25 L 47.29 131.25 L 46.92 131.75 L 46.65 132.50 L 46.24 135.25 L 45.50 136.50 L 45.35 138.25 L 45.20 139.00 L 44.63 140.50 L 44.27 143.25 L 43.79 144.00 L 43.63 144.50 L 43.34 148.00 L 42.75 150.14 L 42.67 151.25 L 42.25 152.50 L 42.06 156.00 L 41.71 157.50 L 41.65 159.25 L 41.34 160.50 L 40.99 168.50 L 40.94 176.75 L 41.17 185.00 L 41.48 191.25 L 41.75 192.25 L 41.81 193.50 L 42.10 194.75 L 42.35 199.25 L 42.81 200.50 L 43.09 201.75 L 43.63 205.50 L 43.69 207.25 L 44.43 208.50 L 44.73 211.00 L 45.25 212.54 L 45.46 215.25 L 46.31 216.50 L 46.67 219.25 L 47.44 220.75 L 47.68 221.75 L 47.81 223.25 L 48.65 224.50 L 48.75 225.25 L 49.25 226.18 L 49.50 227.25 L 50.21 228.75 L 50.49 231.25 L 51.16 232.00 L 51.50 233.36 L 52.10 234.50 L 52.64 236.25 L 53.36 237.50 L 53.85 239.00 L 54.26 239.50 L 54.79 240.75 L 55.39 241.50 L 56.00 242.62 L 56.50 244.98 L 56.75 245.27 L 57.31 245.50 L 57.89 247.00 L 58.28 247.50 L 58.98 249.00 L 59.41 249.50 L 59.66 250.25 L 60.41 251.50 L 60.75 252.46 L 61.16 253.00 L 62.00 253.75 L 62.32 254.50 L 62.42 255.25 L 63.35 256.50 L 63.57 257.00 L 64.03 257.50 L 64.50 258.52 L 64.75 258.86 L 65.56 259.50 L 66.26 260.50 L 66.59 261.25 L 67.55 262.50 L 67.68 263.25 L 68.50 264.13 L 69.06 264.50 L 69.75 265.78 L 70.32 266.50 L 70.75 267.41 L 71.88 268.50 L 72.50 269.37 L 73.25 269.76 L 73.90 271.00 L 75.25 272.28 L 75.75 273.20 L 76.51 274.00 L 77.29 274.50 L 77.75 275.19 L 78.25 275.66 L 78.49 276.25 L 78.90 276.75 L 80.00 277.57 L 80.46 278.50 L 80.53 279.00 L 80.75 279.22 L 81.25 279.30 L 82.10 279.75 L 82.86 281.00 L 83.89 282.00 L 85.12 282.75 L 85.46 283.25 L 86.10 283.75 L 86.80 284.75 L 88.00 285.55 L 88.50 286.20 L 89.25 286.43 L 89.75 287.24 L 90.32 287.50 L 91.91 289.00 L 93.12 289.75 L 94.06 291.00 L 95.75 292.39 L 96.50 293.22 L 97.25 293.32 L 98.20 293.75 L 99.06 294.50 L 99.32 295.25 L 99.58 295.50 L 101.25 296.45 L 101.82 297.00 L 103.25 297.60 L 104.50 298.94 L 106.25 299.55 L 107.95 301.00 L 109.03 301.50 L 110.25 302.27 L 110.80 303.00 L 112.50 304.10 L 113.25 304.20 L 113.93 304.50 L 116.00 305.84 L 117.25 306.40 L 118.32 307.25 L 119.25 307.57 L 120.50 308.52 L 121.25 308.61 L 125.25 310.49 L 125.50 311.00 L 125.75 311.19 L 127.25 311.58 L 128.50 312.27 L 129.25 312.41 L 130.09 313.00 L 131.25 313.37 L 132.30 314.00 L 133.25 314.32 L 134.50 315.09 L 135.25 315.21 L 136.00 315.48 L 136.75 315.93 L 139.00 316.56 L 139.75 317.08 L 141.25 317.51 L 142.25 318.00 L 143.59 318.25 L 144.06 318.50 L 144.53 319.25 L 147.25 319.62 L 150.75 320.97 L 152.50 321.47 L 154.00 321.73 L 155.22 322.25 L 157.00 322.68 L 157.75 323.08 L 161.25 323.73 L 162.50 324.14 L 164.18 324.50 L 165.50 325.01 L 167.25 325.21 L 168.50 325.74 L 169.25 325.71 L 173.25 326.50 L 174.50 327.00 L 175.25 327.12 L 175.54 327.50 L 175.29 328.25 L 175.25 329.61 L 175.02 330.25 L 174.17 331.25 L 173.50 331.45 Z M 187.88 353.25 L 187.24 352.75 L 186.25 352.33 L 186.01 352.00 L 185.68 350.25 L 185.02 343.25 L 184.96 341.50 L 184.41 339.00 L 184.20 336.50 L 183.80 335.50 L 183.72 333.25 L 183.25 330.69 L 183.00 330.24 L 182.71 330.00 L 182.43 329.25 L 182.12 327.25 L 182.01 325.50 L 181.47 324.00 L 181.01 320.75 L 180.60 320.00 L 180.41 319.25 L 180.12 316.50 L 179.46 314.25 L 179.36 312.50 L 178.58 310.25 L 178.22 308.50 L 177.57 307.00 L 177.36 304.50 L 176.48 303.25 L 176.01 300.50 L 175.44 299.00 L 175.01 296.75 L 174.45 296.00 L 174.15 295.25 L 174.02 293.75 L 173.82 293.00 L 173.41 292.25 L 173.18 291.50 L 172.40 290.25 L 172.15 289.25 L 172.11 288.50 L 171.13 287.25 L 170.97 286.50 L 170.39 285.25 L 170.00 283.97 L 169.46 283.25 L 168.73 280.50 L 168.00 278.89 L 167.57 278.25 L 167.25 277.07 L 167.00 276.66 L 166.50 276.41 L 165.73 275.00 L 165.44 274.00 L 165.31 272.50 L 164.33 271.75 L 163.94 271.25 L 163.25 269.47 L 161.50 267.15 L 161.02 265.75 L 160.66 265.25 L 160.63 264.75 L 160.00 263.92 L 159.25 262.04 L 158.32 261.25 L 157.70 259.75 L 156.35 258.00 L 155.78 256.50 L 154.64 255.25 L 154.00 253.79 L 153.47 253.25 L 153.09 252.50 L 152.50 251.83 L 151.51 250.25 L 151.25 249.63 L 151.00 249.40 L 150.48 249.25 L 150.24 248.50 L 149.24 246.50 L 148.12 245.25 L 147.50 244.33 L 147.00 243.16 L 145.67 242.00 L 145.34 241.25 L 145.24 240.50 L 144.15 239.25 L 143.25 237.43 L 142.50 237.21 L 141.50 236.25 L 141.09 235.50 L 139.18 233.25 L 138.90 232.50 L 137.63 231.50 L 137.00 230.54 L 136.21 230.00 L 135.59 229.25 L 135.25 228.49 L 134.50 228.24 L 133.25 226.63 L 131.82 225.25 L 131.54 224.50 L 130.50 223.90 L 130.05 223.50 L 129.25 222.17 L 128.13 221.25 L 127.19 219.75 L 126.25 219.27 L 124.02 217.25 L 123.57 216.50 L 122.50 215.80 L 121.50 214.81 L 120.50 214.51 L 120.11 214.25 L 119.03 212.75 L 118.20 212.25 L 117.00 210.96 L 115.10 209.25 L 114.50 208.49 L 114.21 207.50 L 114.36 207.25 L 114.75 206.99 L 115.75 206.87 L 116.86 207.25 L 118.25 207.49 L 120.50 208.32 L 122.25 208.58 L 123.50 209.18 L 125.00 209.65 L 125.75 210.23 L 127.25 210.60 L 128.50 211.50 L 129.25 211.61 L 131.00 212.53 L 132.75 213.76 L 134.25 214.45 L 136.50 216.06 L 137.25 216.19 L 138.41 217.25 L 139.00 217.53 L 141.97 219.50 L 142.50 220.03 L 143.41 220.50 L 144.50 221.84 L 145.25 222.18 L 145.93 223.00 L 148.06 224.50 L 148.50 225.05 L 149.28 225.50 L 150.54 227.00 L 151.64 227.75 L 152.50 229.07 L 153.25 229.29 L 154.47 230.50 L 154.69 231.25 L 156.00 232.14 L 156.75 233.22 L 157.25 233.51 L 158.30 234.50 L 158.75 235.23 L 159.39 235.75 L 160.50 237.42 L 161.67 238.50 L 162.00 239.14 L 163.25 240.18 L 163.95 241.25 L 165.38 242.50 L 166.75 244.96 L 167.62 245.75 L 167.88 246.50 L 167.93 247.25 L 168.09 247.50 L 168.50 247.84 L 169.25 248.05 L 169.46 248.25 L 170.50 250.08 L 171.25 250.59 L 172.67 253.00 L 173.25 253.74 L 173.56 255.00 L 174.39 255.75 L 174.99 257.00 L 176.13 258.50 L 176.67 260.00 L 177.37 260.50 L 177.75 261.53 L 178.31 262.50 L 178.35 263.25 L 179.40 264.25 L 179.85 265.75 L 181.23 267.75 L 181.73 269.00 L 182.19 269.75 L 182.44 271.25 L 183.32 272.50 L 183.53 273.25 L 184.18 274.50 L 184.50 275.82 L 184.75 276.25 L 185.25 276.65 L 185.67 278.25 L 185.73 279.25 L 186.55 280.50 L 186.74 282.00 L 187.38 283.50 L 188.00 285.50 L 188.15 287.25 L 189.30 289.50 L 189.71 291.00 L 190.00 291.50 L 190.53 293.25 L 191.20 294.00 L 191.63 294.00 L 192.00 293.56 L 192.22 293.00 L 192.48 291.00 L 192.38 288.50 L 192.19 287.25 L 192.03 280.75 L 191.47 279.00 L 191.45 276.75 L 191.02 272.25 L 191.05 269.50 L 190.71 268.00 L 190.45 264.50 L 190.21 263.25 L 190.11 258.50 L 189.88 257.00 L 190.01 240.75 L 190.30 239.25 L 190.49 236.75 L 190.66 235.75 L 191.00 235.04 L 191.19 234.25 L 191.31 232.50 L 191.89 231.25 L 192.00 229.75 L 192.36 227.75 L 192.98 226.25 L 193.10 224.50 L 193.59 223.25 L 193.72 221.75 L 194.07 221.00 L 194.45 219.50 L 194.84 219.00 L 195.13 218.25 L 195.34 216.50 L 196.17 215.25 L 196.43 213.50 L 197.23 212.25 L 197.41 211.50 L 198.00 210.32 L 198.40 208.00 L 198.50 207.85 L 199.25 207.63 L 199.58 207.25 L 199.65 206.25 L 200.28 204.50 L 201.02 203.25 L 201.75 200.50 L 203.00 199.07 L 203.18 197.75 L 203.50 196.56 L 204.00 196.00 L 204.64 194.75 L 205.17 194.00 L 205.49 192.50 L 206.37 191.25 L 206.50 190.40 L 207.25 189.36 L 208.95 184.50 L 209.51 183.25 L 209.62 181.75 L 210.24 180.25 L 210.50 178.75 L 210.97 177.50 L 211.07 176.25 L 211.36 175.25 L 211.58 172.75 L 212.05 171.25 L 212.18 168.50 L 212.38 167.25 L 212.53 160.75 L 212.32 159.25 L 212.57 156.75 L 212.25 154.75 L 211.00 153.89 L 209.60 153.25 L 209.30 152.75 L 209.00 152.52 L 207.25 151.88 L 205.50 151.77 L 204.50 151.91 L 203.80 152.75 L 203.42 154.25 L 202.57 155.75 L 201.66 157.75 L 201.25 159.00 L 201.07 159.25 L 200.50 159.58 L 199.74 160.50 L 199.63 161.25 L 199.24 162.00 L 198.71 162.50 L 197.47 164.25 L 195.43 166.25 L 194.50 166.72 L 194.25 167.25 L 193.75 167.64 L 193.25 167.87 L 192.50 167.97 L 192.05 168.25 L 191.84 168.50 L 191.68 169.25 L 190.24 171.00 L 189.50 171.39 L 188.75 171.42 L 188.00 171.15 L 187.75 170.87 L 187.58 170.00 L 188.16 167.00 L 188.52 160.50 L 188.73 159.25 L 188.71 155.50 L 188.46 154.50 L 188.00 154.09 L 187.25 154.38 L 186.75 154.75 L 185.75 156.05 L 185.25 157.08 L 184.51 157.75 L 184.00 159.25 L 182.75 160.58 L 182.25 163.05 L 181.75 163.76 L 181.17 165.00 L 180.61 165.75 L 180.25 167.29 L 179.31 168.50 L 179.27 169.25 L 178.75 170.50 L 178.25 172.24 L 177.37 174.00 L 177.00 174.34 L 176.75 174.38 L 176.39 174.25 L 175.66 173.25 L 175.25 171.50 L 174.50 169.71 L 174.32 168.50 L 173.55 167.00 L 173.00 164.69 L 172.10 163.50 L 171.00 163.31 L 170.33 163.50 L 169.25 164.36 L 168.50 164.63 L 168.06 165.25 L 166.82 166.00 L 164.50 168.39 L 164.14 169.25 L 162.66 170.50 L 161.25 172.08 L 160.39 172.50 L 159.69 173.25 L 158.25 174.45 L 157.50 174.73 L 157.25 175.00 L 155.50 175.72 L 154.25 176.39 L 152.75 176.91 L 151.75 177.47 L 151.00 177.54 L 149.75 177.08 L 149.44 176.75 L 149.50 176.25 L 150.23 175.50 L 150.50 174.62 L 151.00 174.08 L 151.58 172.75 L 152.10 172.00 L 152.35 170.00 L 152.90 169.00 L 153.59 167.25 L 153.56 165.50 L 153.97 164.25 L 154.03 162.75 L 153.75 162.21 L 153.44 162.00 L 153.00 161.96 L 151.25 162.95 L 150.50 162.99 L 148.52 163.50 L 147.00 164.30 L 145.25 164.86 L 144.75 164.85 L 144.00 165.39 L 141.50 166.62 L 141.00 167.10 L 139.50 167.65 L 138.75 168.07 L 137.80 168.75 L 137.25 169.50 L 136.71 169.75 L 136.25 170.19 L 135.50 170.36 L 134.91 170.75 L 133.55 172.25 L 132.75 172.79 L 131.25 174.28 L 130.75 174.55 L 129.50 176.32 L 129.25 176.55 L 128.62 176.75 L 128.48 177.25 L 127.75 178.17 L 127.50 178.36 L 127.25 178.35 L 127.00 178.17 L 126.38 177.25 L 126.18 176.50 L 126.43 175.25 L 126.66 172.75 L 127.25 171.34 L 127.41 170.50 L 127.89 169.25 L 128.00 168.42 L 128.69 167.25 L 128.80 166.50 L 129.43 164.50 L 130.25 163.28 L 130.50 162.63 L 131.08 162.00 L 131.56 160.50 L 132.45 159.25 L 132.52 158.50 L 133.31 157.25 L 133.72 156.25 L 133.76 155.75 L 133.25 155.12 L 132.75 154.97 L 132.25 155.03 L 131.25 155.40 L 130.00 155.58 L 128.50 155.49 L 126.25 155.77 L 125.15 156.25 L 123.75 156.59 L 122.25 157.16 L 120.50 157.32 L 119.25 158.41 L 117.75 158.49 L 116.68 158.75 L 116.07 159.25 L 114.25 160.31 L 112.50 160.65 L 112.22 161.25 L 111.25 162.06 L 109.00 162.54 L 108.50 162.43 L 108.26 162.25 L 108.05 161.75 L 108.11 160.75 L 108.31 160.25 L 109.95 159.25 L 110.50 158.35 L 111.00 158.26 L 111.40 158.00 L 112.13 156.50 L 113.00 155.94 L 113.67 154.75 L 114.18 154.25 L 114.50 153.70 L 115.25 153.25 L 115.84 152.50 L 117.00 151.65 L 117.34 151.25 L 117.53 150.50 L 118.50 149.53 L 119.25 149.34 L 119.90 148.50 L 121.00 147.52 L 121.47 146.50 L 122.36 145.50 L 123.00 145.09 L 123.50 144.21 L 125.00 143.20 L 125.53 141.75 L 126.50 141.06 L 127.25 140.77 L 127.41 140.00 L 127.25 139.64 L 127.00 139.55 L 118.50 139.72 L 113.25 140.69 L 112.50 140.65 L 111.83 141.25 L 110.25 142.29 L 109.32 142.75 L 108.00 143.86 L 107.25 144.19 L 106.06 144.50 L 105.19 145.25 L 104.50 145.37 L 103.93 145.25 L 103.67 145.00 L 103.59 144.50 L 104.05 142.75 L 104.25 142.40 L 106.50 140.36 L 108.00 139.19 L 109.50 137.45 L 110.50 136.60 L 111.25 136.25 L 112.10 135.25 L 112.30 134.50 L 116.36 130.50 L 117.11 130.00 L 118.00 129.18 L 118.50 128.37 L 119.25 128.00 L 119.85 127.50 L 120.15 127.00 L 120.41 125.75 L 120.25 125.63 L 119.25 125.85 L 117.25 125.58 L 112.75 125.45 L 112.25 125.32 L 111.25 124.78 L 106.75 124.57 L 105.81 124.25 L 105.50 124.02 L 105.19 123.25 L 105.50 122.50 L 107.50 121.48 L 109.25 121.19 L 110.00 120.92 L 110.50 120.54 L 111.25 120.36 L 112.25 119.53 L 113.53 119.25 L 114.75 118.38 L 118.50 116.70 L 119.25 116.62 L 120.50 115.49 L 122.25 115.19 L 123.00 114.80 L 123.50 114.38 L 124.65 114.00 L 125.50 113.44 L 127.25 113.22 L 128.50 112.53 L 132.89 111.25 L 133.25 111.00 L 133.46 110.50 L 133.75 110.35 L 135.25 110.12 L 136.50 109.44 L 138.00 109.27 L 138.45 109.00 L 138.82 108.25 L 138.77 107.75 L 138.00 105.98 L 137.54 105.25 L 137.55 104.50 L 136.75 103.45 L 136.47 102.50 L 135.65 101.25 L 135.25 99.72 L 135.00 99.36 L 134.48 99.00 L 133.86 96.50 L 133.96 95.25 L 133.48 93.00 L 133.46 91.00 L 133.59 90.50 L 134.50 89.41 L 135.00 89.26 L 135.50 89.40 L 136.33 91.00 L 137.44 91.50 L 138.65 93.00 L 139.75 93.80 L 141.64 94.50 L 142.50 95.21 L 143.25 95.31 L 144.50 95.94 L 149.75 96.44 L 155.00 96.58 L 156.25 96.39 L 156.92 96.00 L 157.14 95.25 L 156.97 93.75 L 156.44 92.25 L 156.15 88.50 L 155.43 87.25 L 155.10 83.00 L 155.05 80.75 L 155.26 79.25 L 155.27 75.75 L 155.70 72.50 L 156.00 72.16 L 156.50 71.93 L 157.25 71.87 L 157.75 71.96 L 158.24 72.25 L 158.75 73.58 L 159.55 74.50 L 160.49 76.25 L 161.25 76.51 L 162.75 77.87 L 163.70 78.50 L 163.97 79.00 L 164.50 79.43 L 167.75 80.89 L 170.00 81.44 L 171.00 81.91 L 171.50 81.97 L 172.20 81.75 L 172.98 81.00 L 173.77 79.25 L 173.98 78.25 L 174.36 72.50 L 174.49 72.00 L 175.33 71.25 L 175.52 69.75 L 176.05 68.50 L 177.25 66.70 L 177.75 66.35 L 178.25 66.30 L 178.50 66.47 L 179.29 67.50 L 179.51 69.00 L 179.37 71.25 L 179.50 71.58 L 180.31 72.50 L 180.53 73.25 L 182.75 75.80 L 184.25 76.71 L 184.75 76.83 L 185.43 76.25 L 185.82 75.00 L 185.87 72.75 L 186.27 71.25 L 185.94 68.50 L 185.17 66.00 L 185.14 64.50 L 184.01 63.25 L 184.15 61.50 L 184.50 60.61 L 185.00 60.53 L 186.50 61.46 L 187.45 62.50 L 187.55 63.00 L 187.75 63.25 L 189.25 64.05 L 190.22 65.00 L 191.39 65.50 L 192.50 66.68 L 192.75 66.81 L 193.25 66.73 L 193.75 67.09 L 195.05 67.50 L 195.70 68.00 L 196.42 68.25 L 198.50 68.54 L 199.00 68.77 L 199.25 68.69 L 199.62 68.00 L 199.89 66.50 L 200.32 65.25 L 200.63 63.75 L 200.99 63.00 L 201.36 59.00 L 201.32 54.00 L 201.09 53.00 L 200.50 51.87 L 200.31 51.00 L 200.50 50.34 L 201.50 49.45 L 202.50 49.29 L 204.00 49.49 L 206.25 50.38 L 208.00 51.47 L 208.50 52.31 L 209.25 52.47 L 210.25 53.26 L 211.40 54.50 L 211.53 55.25 L 212.25 55.54 L 213.19 56.50 L 213.53 57.25 L 215.63 59.50 L 216.25 61.06 L 216.50 61.34 L 217.25 61.62 L 217.79 63.25 L 218.25 63.62 L 218.75 63.78 L 219.25 63.65 L 219.61 63.25 L 219.72 62.50 L 220.10 61.75 L 221.25 60.31 L 222.50 58.05 L 223.25 57.80 L 223.68 57.25 L 224.02 56.50 L 225.35 55.25 L 225.50 54.48 L 228.25 52.14 L 230.42 49.50 L 231.50 49.12 L 232.25 48.12 L 232.75 48.10 L 233.00 48.29 L 233.19 48.75 L 233.25 50.77 L 233.16 51.00 L 232.50 51.48 L 231.22 54.75 L 231.13 55.25 L 231.36 56.75 L 231.30 61.00 L 231.48 62.75 L 231.68 63.50 L 231.65 64.25 L 232.00 65.13 L 232.50 65.90 L 232.75 65.83 L 233.25 65.38 L 234.25 65.01 L 235.00 64.51 L 236.45 63.25 L 236.91 62.50 L 238.50 61.38 L 239.25 61.25 L 239.75 60.56 L 241.00 59.80 L 243.00 58.25 L 243.50 57.68 L 244.68 57.00 L 246.50 55.59 L 247.30 55.50 L 247.58 55.25 L 247.63 54.50 L 249.00 53.70 L 250.50 52.30 L 252.85 51.00 L 253.50 50.27 L 254.50 49.61 L 255.25 49.43 L 256.04 49.00 L 257.50 47.81 L 258.62 47.25 L 259.25 46.43 L 260.00 46.22 L 260.50 46.42 L 261.30 47.25 L 261.30 47.50 L 260.66 48.25 L 260.25 49.37 L 258.48 51.50 L 257.25 54.05 L 256.50 54.58 L 256.10 55.75 L 255.64 56.50 L 255.39 58.25 L 254.75 59.41 L 254.59 60.00 L 254.55 61.00 L 254.75 61.38 L 255.00 61.56 L 255.50 61.64 L 257.25 61.13 L 258.23 60.50 L 261.00 59.21 L 261.75 58.63 L 263.25 58.13 L 263.75 57.59 L 265.00 57.01 L 265.84 56.00 L 266.50 55.58 L 267.38 55.25 L 268.50 54.17 L 270.75 52.46 L 272.00 52.24 L 272.41 52.50 L 272.48 52.75 L 272.22 54.25 L 271.25 55.40 L 269.92 56.50 L 269.26 58.25 L 267.75 60.35 L 267.44 61.25 L 266.75 62.30 L 266.56 63.25 L 266.26 64.00 L 265.75 64.54 L 265.33 67.25 L 264.45 69.50 L 264.31 71.25 L 263.70 72.50 L 263.75 72.80 L 264.06 73.25 L 264.50 73.55 L 265.50 73.33 L 268.25 73.01 L 269.75 72.35 L 271.25 72.07 L 272.50 71.60 L 275.25 71.27 L 276.75 70.76 L 280.50 70.38 L 284.25 70.29 L 286.00 70.47 L 287.50 70.87 L 287.84 71.25 L 287.84 71.50 L 287.50 71.87 L 286.50 72.33 L 285.25 73.48 L 284.00 73.87 L 282.50 74.75 L 282.00 75.25 L 280.54 75.75 L 280.15 76.25 L 279.25 77.03 L 277.99 77.75 L 276.25 79.51 L 274.75 80.50 L 274.80 81.25 L 274.35 82.25 L 273.25 83.27 L 272.75 83.37 L 272.45 83.75 L 272.50 84.41 L 272.75 84.62 L 273.25 84.53 L 274.00 84.66 L 275.00 84.62 L 278.50 83.75 L 279.25 83.75 L 281.05 83.00 L 282.84 81.75 L 283.75 81.58 L 284.67 81.75 L 285.01 82.00 L 284.95 82.50 L 284.59 83.25 L 283.75 84.25 L 283.19 85.25 L 281.25 87.24 L 280.50 87.49 L 279.64 88.50 L 279.50 89.25 L 279.25 89.53 L 278.75 89.84 L 278.25 90.39 L 277.50 90.74 L 277.00 91.25 L 275.99 91.75 L 274.25 93.35 L 273.25 93.99 L 270.66 95.00 L 267.50 96.50 L 267.00 97.30 L 264.50 97.91 L 264.21 98.50 L 264.26 99.00 L 264.50 99.34 L 265.25 99.54 L 266.25 100.29 L 267.22 101.25 L 268.25 101.71 L 269.25 102.35 L 269.75 103.02 L 270.50 103.42 L 271.25 103.59 L 272.50 104.75 L 274.23 105.50 L 274.75 106.11 L 275.75 106.83 L 277.40 107.50 L 278.25 108.20 L 279.25 109.51 L 279.21 110.00 L 278.00 110.55 L 275.02 111.00 L 273.25 111.79 L 267.13 112.50 L 264.75 113.18 L 263.25 112.99 L 261.75 113.26 L 260.75 113.28 L 257.75 112.85 L 256.25 113.18 L 255.75 112.67 L 255.44 112.75 L 255.50 114.25 L 255.75 114.90 L 256.20 115.50 L 256.50 116.46 L 256.75 116.61 L 257.25 116.58 L 258.62 118.00 L 259.25 118.46 L 259.61 119.25 L 261.25 120.04 L 262.37 121.00 L 263.50 121.31 L 264.50 122.46 L 265.25 122.59 L 266.00 123.17 L 266.36 123.75 L 266.29 124.25 L 265.25 125.21 L 264.75 125.39 L 264.25 125.38 L 263.25 124.99 L 261.25 124.70 L 254.75 124.51 L 251.50 124.74 L 250.00 125.10 L 248.50 125.13 L 247.25 125.62 L 245.50 125.58 L 244.63 126.00 L 243.90 126.75 L 243.59 127.75 L 243.01 135.25 L 242.67 136.50 L 242.06 143.25 L 241.56 144.50 L 241.31 146.25 L 240.50 147.99 L 240.25 147.99 L 239.09 145.25 L 239.00 144.74 L 238.75 144.80 L 238.50 144.50 L 238.04 138.50 L 237.73 137.25 L 237.71 136.50 L 236.60 135.25 L 236.36 134.50 L 236.00 133.90 L 234.75 132.70 L 234.25 132.64 L 233.91 132.75 L 232.75 134.09 L 232.41 135.50 L 231.72 136.50 L 231.25 139.90 L 230.75 140.78 L 230.50 141.72 L 230.42 143.25 L 229.68 144.50 L 229.70 145.00 L 230.35 147.50 L 230.40 149.00 L 230.25 149.35 L 229.50 150.01 L 229.25 150.02 L 228.14 149.25 L 227.00 147.27 L 226.25 146.56 L 225.50 146.08 L 224.78 144.50 L 222.75 143.21 L 222.00 142.42 L 221.25 142.19 L 220.75 142.19 L 220.50 142.39 L 220.33 142.75 L 220.28 143.50 L 220.46 144.50 L 220.32 167.00 L 219.74 170.50 L 219.09 178.25 L 218.75 179.63 L 218.42 183.25 L 217.81 184.75 L 217.26 188.25 L 216.50 189.59 L 216.33 191.25 L 215.56 192.50 L 215.25 194.05 L 214.75 194.82 L 214.25 196.17 L 213.50 197.46 L 213.05 199.25 L 211.75 200.70 L 211.47 202.25 L 211.16 203.00 L 210.59 203.75 L 209.75 205.66 L 209.38 207.25 L 209.18 207.50 L 208.50 207.79 L 208.09 208.25 L 207.79 210.25 L 207.45 211.25 L 206.67 212.50 L 206.25 214.17 L 205.51 215.50 L 204.60 216.50 L 204.58 217.25 L 204.25 219.00 L 203.50 220.50 L 202.70 223.25 L 201.79 224.75 L 201.66 226.25 L 201.25 228.24 L 200.50 229.53 L 200.34 231.25 L 199.69 232.50 L 199.09 238.25 L 198.59 240.50 L 198.46 250.00 L 198.57 255.00 L 198.87 256.50 L 198.92 259.25 L 199.25 260.75 L 199.36 263.25 L 199.50 263.73 L 199.98 264.50 L 200.04 266.25 L 200.59 271.00 L 200.75 271.37 L 201.17 271.75 L 201.30 272.25 L 201.44 275.25 L 201.66 277.25 L 201.96 278.50 L 201.96 279.25 L 202.52 280.50 L 202.61 284.25 L 202.84 285.75 L 202.84 287.00 L 203.31 288.50 L 203.77 296.50 L 203.75 300.25 L 204.02 301.75 L 204.04 303.00 L 204.25 303.36 L 204.75 303.54 L 205.41 303.25 L 205.72 301.75 L 206.50 299.92 L 207.25 299.06 L 207.73 297.50 L 208.00 297.19 L 208.57 295.75 L 209.00 295.20 L 209.67 292.50 L 210.01 292.00 L 210.50 290.71 L 211.07 290.00 L 211.51 288.50 L 212.52 287.25 L 212.60 286.50 L 214.47 282.50 L 215.00 282.17 L 215.25 281.78 L 215.65 280.25 L 216.50 279.25 L 216.65 278.50 L 217.00 278.10 L 217.70 276.75 L 218.25 276.24 L 218.51 275.50 L 219.00 274.97 L 219.50 273.64 L 220.00 273.17 L 220.50 272.31 L 221.00 271.87 L 221.71 270.50 L 222.50 269.57 L 223.25 269.14 L 223.87 267.75 L 225.00 266.34 L 225.35 265.50 L 226.50 264.04 L 227.31 263.25 L 227.53 262.00 L 228.43 260.50 L 229.00 259.96 L 229.95 258.75 L 230.50 257.74 L 231.10 257.25 L 231.50 256.27 L 232.81 255.00 L 233.50 253.54 L 234.00 253.23 L 234.61 252.50 L 235.00 252.22 L 235.37 251.50 L 236.11 250.50 L 237.00 249.65 L 237.61 248.50 L 238.50 247.50 L 239.30 247.25 L 239.38 246.50 L 239.64 245.75 L 239.83 245.50 L 241.00 244.74 L 241.50 243.64 L 242.00 243.12 L 242.32 242.50 L 243.05 242.00 L 244.00 241.08 L 244.50 240.23 L 245.51 239.25 L 245.85 238.50 L 246.50 237.68 L 247.33 237.25 L 248.50 235.58 L 249.12 235.25 L 249.67 234.50 L 250.75 233.53 L 251.59 233.00 L 252.50 231.91 L 253.87 231.00 L 254.50 230.36 L 255.25 230.24 L 255.50 230.00 L 256.30 228.50 L 257.03 228.00 L 257.65 226.75 L 258.20 226.25 L 258.56 225.50 L 259.00 225.19 L 259.28 224.75 L 259.12 224.25 L 258.57 224.00 L 256.50 223.98 L 255.25 224.39 L 254.35 224.50 L 253.25 225.09 L 249.84 225.75 L 246.75 226.92 L 245.00 228.10 L 243.50 228.53 L 241.28 230.25 L 240.34 230.50 L 239.50 231.56 L 238.50 232.21 L 238.08 232.75 L 238.05 233.25 L 237.75 233.52 L 237.35 234.25 L 236.63 234.75 L 236.25 235.29 L 235.75 235.56 L 235.35 236.25 L 234.75 236.89 L 234.25 238.14 L 233.79 238.75 L 233.25 239.90 L 232.75 240.13 L 232.41 240.50 L 232.27 241.25 L 231.23 244.00 L 230.70 244.75 L 229.86 247.25 L 229.26 248.50 L 229.18 249.25 L 228.71 250.50 L 228.55 252.25 L 228.19 254.00 L 227.25 255.70 L 226.75 255.75 L 225.75 255.52 L 225.46 255.25 L 225.07 253.25 L 224.91 251.50 L 224.36 250.00 L 224.07 248.50 L 223.50 247.25 L 223.19 243.50 L 222.79 242.00 L 222.69 241.00 L 222.76 236.75 L 223.14 235.25 L 223.35 232.50 L 223.85 231.25 L 223.89 230.25 L 224.25 228.75 L 225.05 227.25 L 225.50 225.53 L 225.97 224.50 L 227.18 223.25 L 227.24 222.50 L 227.63 221.50 L 229.13 220.25 L 230.28 218.50 L 231.25 217.98 L 232.50 216.51 L 234.56 215.25 L 235.12 214.50 L 236.10 214.00 L 236.73 213.50 L 237.80 213.00 L 238.50 212.45 L 239.25 212.37 L 240.50 211.36 L 242.25 211.21 L 243.75 210.58 L 245.40 210.25 L 246.50 209.82 L 247.25 209.75 L 248.50 209.33 L 254.25 208.96 L 255.75 208.62 L 271.25 207.93 L 273.08 207.00 L 273.50 206.49 L 275.50 205.48 L 276.91 205.00 L 277.75 204.38 L 279.14 204.00 L 279.75 203.41 L 281.00 202.74 L 282.50 201.71 L 284.00 201.00 L 284.50 200.38 L 285.50 199.64 L 287.25 199.26 L 287.49 198.50 L 288.33 198.00 L 289.22 197.25 L 290.50 195.61 L 291.75 194.49 L 292.75 194.13 L 293.50 194.02 L 293.75 194.16 L 293.95 194.50 L 294.01 195.00 L 293.31 197.25 L 291.44 200.00 L 290.90 200.50 L 290.79 200.75 L 290.85 201.25 L 290.41 202.25 L 289.25 203.76 L 288.75 203.85 L 288.50 204.07 L 287.88 205.75 L 285.58 208.50 L 285.25 210.19 L 284.75 210.96 L 284.31 212.25 L 283.56 213.50 L 282.66 215.75 L 282.12 216.50 L 282.12 217.25 L 281.64 218.50 L 281.26 220.75 L 281.06 223.50 L 280.50 224.72 L 280.18 230.00 L 279.75 234.00 L 279.41 236.00 L 278.76 237.50 L 278.65 239.25 L 277.47 242.25 L 276.75 243.26 L 276.38 244.25 L 275.59 245.50 L 274.45 248.00 L 273.75 248.61 L 273.50 249.25 L 273.25 249.52 L 272.75 249.76 L 271.61 251.25 L 270.69 251.75 L 270.25 252.27 L 269.75 252.63 L 269.25 253.37 L 268.25 254.06 L 266.75 254.70 L 266.30 255.25 L 265.25 255.78 L 264.50 255.88 L 263.25 256.56 L 262.50 256.67 L 261.00 257.41 L 259.00 258.02 L 256.50 258.32 L 255.50 259.17 L 255.00 259.31 L 248.50 259.61 L 246.75 259.54 L 244.50 259.17 L 243.75 259.28 L 243.26 259.50 L 241.28 261.25 L 240.50 261.34 L 239.82 262.25 L 238.79 263.25 L 238.04 265.25 L 237.28 266.25 L 236.73 266.75 L 235.75 268.33 L 235.45 269.25 L 234.50 270.34 L 234.09 271.25 L 233.25 272.44 L 232.75 272.55 L 232.58 272.75 L 232.21 274.25 L 231.25 276.01 L 230.75 276.66 L 230.22 278.00 L 229.75 278.65 L 229.25 279.99 L 228.67 280.50 L 228.32 282.25 L 227.75 282.95 L 227.25 284.20 L 226.72 284.75 L 225.75 287.25 L 224.50 288.50 L 223.43 292.00 L 222.75 293.08 L 222.21 295.25 L 221.50 296.35 L 221.17 298.00 L 219.67 301.50 L 219.22 303.75 L 218.54 304.75 L 218.26 307.00 L 217.68 308.50 L 217.29 311.25 L 216.58 312.00 L 216.38 312.50 L 216.14 316.00 L 215.58 317.50 L 215.32 319.25 L 214.70 320.50 L 214.63 322.50 L 213.68 328.50 L 213.29 335.25 L 213.01 336.50 L 212.99 339.00 L 212.74 340.50 L 212.71 343.25 L 212.53 344.50 L 212.55 351.25 L 212.25 352.25 L 210.59 352.75 L 210.00 353.11 L 208.75 353.34 L 207.25 353.16 L 192.50 353.19 L 189.50 353.37 Z M 128.23 149.75 L 128.75 149.97 L 130.00 149.89 L 131.50 149.53 L 135.13 149.00 L 135.75 148.75 L 140.25 148.16 L 141.75 147.78 L 144.00 147.56 L 144.50 147.70 L 145.25 148.33 L 145.48 149.00 L 145.31 150.00 L 144.50 150.53 L 144.00 151.85 L 143.44 152.50 L 143.33 153.25 L 142.75 153.83 L 141.75 155.41 L 141.40 156.25 L 140.50 157.36 L 139.91 158.50 L 139.50 159.72 L 138.75 160.41 L 138.85 160.75 L 139.25 160.84 L 139.75 160.77 L 141.50 159.97 L 143.00 159.55 L 143.38 159.25 L 143.54 158.50 L 145.25 158.20 L 146.50 157.44 L 147.94 157.00 L 148.50 156.44 L 149.72 156.00 L 150.50 155.50 L 151.25 155.43 L 152.50 154.54 L 153.44 154.25 L 154.50 153.50 L 156.25 153.20 L 157.25 152.14 L 157.75 151.85 L 158.75 151.61 L 159.25 151.68 L 160.03 152.50 L 160.24 153.75 L 160.37 159.25 L 160.19 163.75 L 160.32 164.25 L 160.50 164.42 L 160.75 164.43 L 163.19 163.00 L 163.50 162.59 L 164.24 162.00 L 164.53 161.50 L 165.00 161.15 L 165.37 160.50 L 166.50 159.62 L 167.27 159.50 L 167.49 159.00 L 167.69 157.75 L 168.25 157.19 L 168.89 156.25 L 169.42 154.50 L 170.75 152.83 L 171.60 151.25 L 171.70 150.50 L 172.50 149.33 L 173.25 149.06 L 174.25 149.12 L 174.72 149.50 L 175.33 150.25 L 175.54 151.00 L 175.41 152.50 L 175.57 153.00 L 176.13 153.75 L 176.42 154.50 L 176.75 156.96 L 177.50 158.27 L 178.00 158.49 L 178.75 158.00 L 179.62 156.75 L 180.25 156.18 L 180.60 155.50 L 181.00 155.04 L 182.24 151.50 L 182.50 151.20 L 183.11 151.00 L 183.75 148.75 L 183.91 148.50 L 185.00 147.75 L 185.30 147.25 L 185.51 146.50 L 186.36 145.50 L 187.19 145.00 L 187.50 144.49 L 188.86 143.75 L 190.50 142.63 L 191.25 142.49 L 192.00 141.76 L 192.25 141.77 L 193.31 142.25 L 194.26 143.00 L 194.53 143.50 L 193.93 144.50 L 193.76 145.50 L 193.77 151.25 L 194.10 152.75 L 193.75 154.10 L 193.65 155.50 L 193.70 156.25 L 193.96 156.75 L 194.25 156.92 L 194.50 156.85 L 195.19 156.25 L 196.40 154.50 L 197.25 153.96 L 198.32 152.25 L 198.59 152.00 L 199.25 151.72 L 199.63 151.25 L 199.64 150.25 L 200.62 147.25 L 201.11 144.50 L 201.75 143.83 L 202.50 143.55 L 203.00 143.55 L 206.25 144.31 L 206.97 144.75 L 208.50 145.39 L 209.25 145.51 L 210.50 146.32 L 211.75 146.87 L 212.25 146.83 L 212.75 146.40 L 213.06 145.75 L 213.00 144.50 L 213.36 143.25 L 213.37 140.75 L 213.63 136.50 L 214.45 134.50 L 215.03 134.00 L 215.99 132.50 L 216.25 132.29 L 216.75 132.20 L 219.00 132.72 L 219.75 133.14 L 221.00 133.57 L 221.75 134.08 L 223.00 134.64 L 223.51 135.25 L 224.50 136.03 L 225.00 136.13 L 225.50 136.07 L 226.00 135.66 L 226.10 135.25 L 226.03 134.75 L 225.13 131.50 L 224.17 130.25 L 223.62 128.50 L 223.88 127.50 L 224.25 127.06 L 226.55 126.50 L 228.50 126.26 L 234.00 126.07 L 236.50 126.42 L 237.25 126.21 L 237.88 125.00 L 238.04 122.50 L 236.74 119.00 L 237.02 117.75 L 237.50 117.30 L 239.00 116.65 L 239.50 116.84 L 240.50 117.71 L 241.25 117.69 L 242.50 117.99 L 244.25 118.19 L 245.62 118.50 L 246.93 119.00 L 250.75 119.56 L 251.42 119.50 L 252.02 119.25 L 252.00 118.94 L 250.50 117.47 L 247.83 114.25 L 247.48 112.75 L 247.25 112.30 L 246.48 112.00 L 246.09 110.50 L 245.34 109.00 L 245.27 107.50 L 245.47 106.50 L 246.57 105.50 L 247.25 105.27 L 248.50 106.06 L 251.25 106.29 L 254.25 106.97 L 255.50 107.07 L 256.50 107.38 L 261.25 107.32 L 262.25 107.06 L 263.30 106.50 L 263.45 106.25 L 263.36 106.00 L 263.00 105.65 L 262.50 105.42 L 262.11 104.75 L 260.50 104.05 L 260.00 103.51 L 258.34 102.50 L 257.70 102.25 L 257.22 101.75 L 256.25 101.25 L 255.25 100.53 L 253.75 100.29 L 252.61 99.75 L 251.50 99.41 L 250.24 98.50 L 250.02 98.00 L 249.99 97.50 L 250.09 97.25 L 250.50 96.85 L 251.50 96.38 L 255.23 95.25 L 255.90 94.50 L 258.00 93.98 L 260.25 93.17 L 261.07 92.75 L 261.12 92.50 L 260.42 92.25 L 258.50 92.08 L 257.25 91.82 L 256.50 91.82 L 255.25 91.30 L 254.50 91.20 L 253.48 90.50 L 253.23 90.00 L 253.25 89.50 L 253.50 89.07 L 254.50 88.12 L 256.21 87.75 L 258.00 87.15 L 258.75 86.55 L 260.03 86.00 L 261.75 84.62 L 262.50 84.33 L 263.28 84.25 L 264.00 83.48 L 265.00 82.82 L 267.00 81.04 L 267.50 80.32 L 269.00 79.44 L 269.25 79.00 L 269.18 78.00 L 268.75 77.80 L 267.75 77.98 L 266.22 78.50 L 265.00 79.27 L 263.50 79.47 L 262.25 79.87 L 259.75 80.37 L 258.25 81.20 L 256.50 81.28 L 256.09 81.50 L 255.50 82.28 L 255.25 82.28 L 255.00 82.11 L 254.33 81.25 L 253.95 80.25 L 254.50 78.92 L 255.25 78.15 L 256.53 74.75 L 257.00 73.89 L 257.50 72.10 L 258.22 71.25 L 258.38 70.50 L 259.07 69.25 L 259.86 67.00 L 259.80 66.25 L 259.50 65.98 L 259.00 66.04 L 257.85 66.75 L 257.25 67.29 L 256.75 67.50 L 256.08 68.25 L 254.75 68.76 L 253.75 69.51 L 253.01 70.25 L 251.70 70.75 L 250.00 72.16 L 249.25 72.36 L 248.50 72.37 L 248.25 72.69 L 248.16 73.25 L 247.75 73.66 L 247.00 73.82 L 245.75 73.48 L 244.96 72.75 L 244.82 72.25 L 245.38 71.25 L 245.77 67.50 L 246.75 63.80 L 247.30 63.25 L 247.21 62.50 L 247.78 60.50 L 247.76 60.00 L 247.50 59.85 L 247.00 59.99 L 245.25 61.21 L 244.50 61.58 L 242.75 63.02 L 241.89 64.00 L 241.25 64.20 L 240.49 64.25 L 240.17 64.50 L 239.97 65.25 L 238.75 66.02 L 237.25 67.29 L 236.50 67.66 L 234.93 68.75 L 233.25 70.10 L 232.25 70.35 L 231.50 70.13 L 231.25 70.17 L 229.81 71.00 L 229.52 71.25 L 229.45 71.50 L 230.50 71.92 L 232.50 72.40 L 236.00 72.58 L 237.50 73.06 L 239.50 73.18 L 241.25 73.76 L 242.13 74.25 L 243.25 74.63 L 243.75 75.06 L 245.00 75.51 L 245.75 76.20 L 247.50 77.22 L 248.31 78.50 L 248.43 79.25 L 248.75 79.52 L 249.25 79.69 L 249.74 80.50 L 249.82 81.25 L 250.34 82.75 L 250.79 87.00 L 250.72 88.50 L 250.89 89.25 L 250.34 90.75 L 250.22 91.50 L 250.29 92.25 L 249.53 93.75 L 249.32 94.50 L 249.35 95.25 L 249.25 95.58 L 248.50 95.97 L 248.05 96.50 L 247.61 98.25 L 246.75 99.12 L 246.28 100.25 L 245.15 102.00 L 244.50 102.67 L 244.25 103.34 L 243.33 104.50 L 243.25 105.25 L 242.75 105.71 L 242.44 106.25 L 241.50 107.30 L 240.63 107.75 L 239.25 110.06 L 238.65 110.50 L 238.25 111.35 L 237.25 112.11 L 236.46 112.50 L 236.09 113.25 L 233.25 115.01 L 231.13 115.75 L 228.75 117.00 L 226.61 118.75 L 225.75 120.07 L 225.25 120.26 L 224.50 120.27 L 224.27 120.50 L 224.13 121.50 L 223.66 122.25 L 222.75 122.86 L 221.78 123.75 L 221.25 124.43 L 220.76 124.75 L 220.25 125.33 L 219.51 125.75 L 219.10 126.25 L 218.12 126.75 L 217.25 127.60 L 216.50 127.73 L 215.69 128.25 L 214.46 129.25 L 213.25 130.01 L 211.75 130.50 L 211.00 131.19 L 209.85 131.75 L 209.25 132.23 L 208.50 132.44 L 207.95 133.25 L 206.75 133.76 L 206.07 134.25 L 204.75 134.74 L 204.25 135.35 L 201.75 136.51 L 201.07 137.00 L 197.68 138.50 L 196.88 139.25 L 195.00 140.07 L 192.50 140.55 L 192.00 141.47 L 191.75 141.61 L 189.75 141.79 L 187.50 142.59 L 186.25 143.16 L 184.50 143.42 L 183.25 144.13 L 181.26 144.50 L 179.25 145.29 L 177.50 145.61 L 176.50 145.67 L 175.25 146.36 L 173.75 146.42 L 171.50 146.73 L 170.00 147.27 L 167.25 147.52 L 161.50 147.66 L 160.50 147.83 L 159.25 147.59 L 155.50 147.35 L 152.50 146.77 L 151.75 146.44 L 151.00 145.86 L 149.50 145.37 L 149.00 144.74 L 146.50 143.68 L 145.00 142.01 L 144.02 141.25 L 143.25 139.60 L 142.43 139.00 L 141.69 137.25 L 141.63 136.50 L 141.10 135.00 L 141.03 131.75 L 141.22 128.50 L 142.07 127.25 L 142.68 124.50 L 143.25 123.85 L 144.37 121.50 L 144.80 121.00 L 145.39 119.75 L 146.12 119.25 L 146.55 117.75 L 147.09 117.25 L 147.53 116.50 L 148.00 116.10 L 148.36 115.50 L 150.00 113.52 L 150.42 112.50 L 151.25 112.14 L 152.08 111.25 L 152.17 110.50 L 153.00 109.72 L 153.69 108.75 L 154.65 108.00 L 155.74 106.50 L 157.25 105.19 L 158.49 103.50 L 159.25 103.40 L 159.50 103.23 L 160.15 102.25 L 161.32 101.25 L 162.02 100.25 L 162.07 100.00 L 160.50 99.72 L 159.25 100.52 L 158.50 100.47 L 156.50 100.76 L 155.00 101.33 L 147.50 101.33 L 143.50 101.20 L 142.50 101.05 L 141.75 101.16 L 141.50 101.43 L 141.47 101.75 L 141.75 102.89 L 142.35 103.50 L 142.53 104.25 L 142.81 104.75 L 144.00 105.73 L 144.50 107.00 L 144.75 107.16 L 145.25 107.16 L 146.00 107.50 L 148.68 109.50 L 148.96 110.00 L 149.00 111.05 L 148.86 111.25 L 148.02 111.75 L 146.25 112.16 L 144.50 112.13 L 143.79 112.50 L 143.25 113.21 L 140.25 113.85 L 139.25 114.40 L 138.17 114.75 L 137.25 115.39 L 136.50 115.46 L 135.25 116.41 L 134.50 116.50 L 133.83 116.75 L 133.25 117.29 L 132.50 117.65 L 132.00 118.07 L 130.50 118.67 L 129.75 119.18 L 128.56 119.50 L 128.00 119.84 L 126.72 120.25 L 126.57 120.50 L 126.74 120.75 L 127.50 120.91 L 128.50 120.60 L 135.00 120.26 L 136.25 120.38 L 137.50 119.92 L 140.00 119.57 L 141.25 119.83 L 141.45 120.50 L 141.25 121.32 L 140.25 122.22 L 139.50 122.49 L 137.25 123.68 L 136.50 123.91 L 135.25 125.11 L 133.97 125.75 L 133.25 126.38 L 131.83 127.00 L 130.25 128.26 L 128.50 128.56 L 128.00 129.42 L 126.75 130.08 L 125.98 130.75 L 125.25 131.61 L 122.55 132.75 L 121.98 133.50 L 122.02 133.75 L 122.50 134.12 L 123.50 134.26 L 126.25 134.10 L 127.25 133.87 L 128.50 134.17 L 135.25 134.16 L 136.25 133.76 L 136.50 133.77 L 138.00 134.68 L 138.20 135.00 L 138.25 136.00 L 137.25 137.95 L 136.25 138.70 L 135.25 140.16 L 134.65 140.50 L 134.21 141.25 L 132.75 142.77 L 132.06 144.00 L 131.43 144.50 L 131.09 146.00 L 130.25 147.23 L 129.25 147.89 L 128.75 147.91 L 128.50 148.08 L 128.15 149.00 Z M 190.47 82.00 L 191.00 82.18 L 191.50 82.06 L 192.50 81.34 L 193.76 81.00 L 194.50 80.42 L 195.82 80.00 L 196.75 79.52 L 198.07 79.25 L 199.00 78.80 L 199.50 78.39 L 201.25 78.10 L 202.50 77.43 L 203.21 77.25 L 204.50 76.64 L 206.50 76.13 L 207.25 76.07 L 208.50 75.34 L 209.25 75.20 L 210.75 74.63 L 213.25 74.23 L 214.04 74.00 L 214.50 73.67 L 215.25 73.42 L 215.50 73.02 L 215.50 72.74 L 215.25 72.38 L 214.50 72.16 L 213.92 70.00 L 213.49 69.25 L 213.25 68.44 L 212.43 67.25 L 212.00 66.06 L 211.50 65.25 L 211.41 64.50 L 210.50 63.59 L 209.00 61.74 L 208.00 60.86 L 207.25 60.47 L 206.98 60.50 L 206.66 60.75 L 205.80 62.50 L 205.40 64.00 L 204.89 64.75 L 204.95 65.25 L 203.50 69.55 L 203.18 72.25 L 202.61 73.75 L 202.49 75.50 L 202.25 76.40 L 201.25 76.96 L 200.25 77.08 L 199.25 76.48 L 197.75 76.26 L 196.77 75.75 L 195.22 75.25 L 192.85 73.75 L 192.25 73.65 L 191.81 73.75 L 191.48 74.50 L 191.33 77.25 L 190.49 80.75 L 190.39 81.75 Z M 219.12 72.50 L 219.18 72.75 L 220.25 72.85 L 223.25 72.28 L 224.50 71.85 L 225.50 72.02 L 226.75 71.94 L 227.34 71.75 L 227.60 71.50 L 227.34 71.00 L 226.50 70.38 L 226.00 69.64 L 225.10 68.75 L 224.75 68.56 L 224.36 68.75 L 223.31 70.25 L 221.75 70.83 L 221.00 71.46 Z M 147.03 135.25 L 148.09 136.50 L 148.34 137.25 L 148.75 137.91 L 149.90 139.00 L 150.50 139.31 L 151.30 139.50 L 152.50 140.67 L 153.25 140.80 L 156.50 142.10 L 160.25 142.87 L 165.25 142.85 L 166.50 142.57 L 167.25 142.56 L 168.50 142.00 L 169.50 141.95 L 172.75 141.15 L 175.00 140.92 L 176.50 140.13 L 178.00 139.90 L 178.75 139.53 L 180.88 139.00 L 181.75 138.52 L 183.25 138.41 L 184.50 137.90 L 187.25 137.14 L 188.75 136.42 L 191.00 135.81 L 191.96 135.25 L 192.50 134.50 L 194.00 134.03 L 194.75 133.60 L 196.25 133.19 L 197.50 132.37 L 199.00 131.91 L 199.75 131.37 L 201.00 130.89 L 201.50 130.47 L 202.75 129.98 L 203.50 129.43 L 204.65 129.00 L 205.75 128.07 L 207.50 127.73 L 208.12 127.25 L 208.50 126.51 L 209.66 126.00 L 210.50 125.32 L 211.14 125.00 L 211.50 124.63 L 212.77 124.00 L 213.50 123.34 L 214.50 122.76 L 215.25 122.56 L 216.50 121.33 L 217.25 121.08 L 219.47 119.50 L 220.25 119.22 L 220.73 118.50 L 222.50 117.70 L 223.25 117.60 L 224.44 116.50 L 225.25 116.20 L 226.00 115.69 L 229.00 112.58 L 229.50 111.64 L 230.00 111.04 L 230.17 110.50 L 230.50 110.13 L 231.00 109.90 L 231.25 109.64 L 231.89 108.50 L 233.25 107.27 L 233.55 106.75 L 234.17 106.25 L 234.50 105.74 L 235.25 105.24 L 235.64 104.50 L 237.11 103.50 L 237.31 103.25 L 237.47 102.50 L 238.34 101.50 L 239.25 101.10 L 240.10 99.50 L 241.00 98.80 L 241.57 97.75 L 242.03 97.25 L 242.41 96.25 L 243.51 95.25 L 243.55 94.50 L 244.00 93.60 L 245.15 90.00 L 245.27 88.50 L 245.12 85.50 L 244.86 84.75 L 244.47 84.25 L 244.15 83.50 L 243.65 83.00 L 242.40 81.25 L 242.10 80.50 L 239.78 79.25 L 239.13 78.50 L 236.75 78.18 L 235.83 77.75 L 235.00 77.60 L 229.00 77.29 L 224.75 77.35 L 220.75 77.22 L 216.50 77.70 L 215.25 78.31 L 213.75 78.62 L 213.00 79.04 L 208.25 79.98 L 207.25 80.71 L 206.50 80.75 L 205.24 81.25 L 204.50 81.39 L 203.00 82.16 L 201.25 82.52 L 200.64 82.50 L 199.75 83.20 L 197.62 83.75 L 196.25 84.43 L 195.50 84.65 L 193.25 85.94 L 192.50 86.04 L 191.25 87.02 L 189.75 87.48 L 189.00 88.05 L 187.55 88.50 L 187.15 89.25 L 186.50 89.48 L 185.25 90.28 L 184.25 90.48 L 183.25 91.24 L 181.68 91.75 L 180.10 92.75 L 178.25 94.39 L 176.75 94.88 L 176.00 95.52 L 174.07 96.50 L 173.25 97.62 L 171.50 98.68 L 170.00 100.18 L 169.25 100.50 L 168.50 100.59 L 168.11 101.00 L 167.42 102.25 L 166.58 102.75 L 165.25 104.05 L 164.43 104.50 L 164.21 105.25 L 162.59 106.50 L 161.25 108.17 L 160.50 108.47 L 160.00 109.24 L 159.25 110.02 L 158.48 110.50 L 158.11 111.25 L 156.50 112.47 L 156.25 113.42 L 154.75 115.11 L 154.20 116.25 L 153.53 117.25 L 152.50 117.82 L 151.39 120.00 L 150.75 120.63 L 150.25 122.23 L 148.75 123.97 L 148.47 124.50 L 148.27 125.25 L 147.54 126.50 L 147.44 127.25 L 146.95 128.00 L 146.75 128.75 L 146.79 133.00 L 147.05 134.50 Z M 178.17 88.25 L 178.75 88.48 L 179.48 88.25 L 180.34 87.50 L 181.25 87.18 L 181.75 86.66 L 183.00 86.05 L 183.75 85.41 L 187.25 84.10 L 189.00 83.06 L 189.19 82.75 L 189.00 82.58 L 186.75 82.57 L 184.75 82.18 L 183.25 81.33 L 182.50 81.06 L 181.70 80.50 L 180.25 80.12 L 179.50 80.15 L 178.94 80.75 L 178.56 83.25 L 178.06 85.75 Z M 161.53 86.00 L 161.48 86.75 L 161.75 89.93 L 162.63 93.25 L 163.26 94.50 L 163.33 95.25 L 163.96 96.50 L 164.00 97.25 L 164.25 97.90 L 164.75 97.78 L 166.50 96.76 L 167.25 96.48 L 168.04 95.75 L 169.06 95.25 L 169.50 94.42 L 170.50 93.70 L 171.88 93.00 L 173.47 91.50 L 175.25 91.12 L 175.66 90.50 L 175.62 90.00 L 175.38 89.75 L 173.02 89.25 L 172.37 88.50 L 170.75 87.98 L 169.82 87.50 L 169.10 86.75 L 168.25 86.35 L 167.25 85.51 L 164.75 85.26 L 163.77 84.75 L 163.00 84.66 L 162.50 84.79 L 161.75 85.51 Z M 358.25 383.61 L 356.83 384.50 L 356.25 385.46 L 354.75 386.65 L 354.34 387.25 L 353.34 388.25 L 352.50 388.51 L 352.25 388.71 L 351.25 390.09 L 349.87 390.75 L 349.25 391.50 L 347.10 392.50 L 346.74 392.75 L 346.47 393.25 L 346.00 393.63 L 345.25 394.05 L 344.50 394.19 L 343.34 395.25 L 341.50 395.64 L 340.25 396.32 L 338.98 396.75 L 338.09 397.25 L 336.50 397.49 L 335.25 398.37 L 330.50 398.69 L 329.00 399.06 L 323.75 399.14 L 322.25 398.78 L 320.50 398.75 L 319.25 398.49 L 317.50 398.44 L 315.75 398.22 L 314.25 397.55 L 312.00 397.19 L 311.00 396.68 L 309.50 396.29 L 308.26 395.50 L 307.50 395.32 L 306.00 394.54 L 304.03 393.75 L 303.60 393.25 L 303.53 392.50 L 303.25 392.28 L 301.75 392.07 L 300.15 390.75 L 298.65 390.25 L 297.70 389.25 L 297.09 388.25 L 295.86 387.25 L 295.25 386.33 L 294.50 386.18 L 293.63 385.25 L 293.39 384.50 L 292.56 383.25 L 292.00 381.88 L 291.45 381.25 L 291.00 379.87 L 290.57 379.25 L 290.30 378.50 L 289.60 377.25 L 289.09 375.25 L 289.00 374.21 L 288.31 372.00 L 288.03 368.75 L 288.15 365.75 L 288.44 363.75 L 288.96 362.25 L 289.03 360.50 L 289.43 359.25 L 289.60 357.75 L 290.08 357.00 L 290.50 355.53 L 291.06 355.00 L 291.65 353.75 L 292.01 353.25 L 292.38 352.25 L 293.38 351.25 L 293.53 350.50 L 294.31 349.50 L 295.25 349.07 L 295.75 348.15 L 296.38 347.50 L 297.00 347.24 L 297.23 347.00 L 297.43 346.50 L 298.30 345.50 L 299.25 345.01 L 300.23 344.25 L 300.75 343.65 L 302.20 343.00 L 302.50 342.57 L 305.50 341.43 L 307.00 341.03 L 307.50 340.76 L 308.50 340.64 L 313.00 340.51 L 316.75 341.32 L 319.25 341.61 L 320.25 342.28 L 322.25 342.54 L 323.50 343.39 L 325.25 343.87 L 326.00 344.45 L 326.50 345.04 L 327.96 345.50 L 328.50 346.75 L 329.58 347.50 L 331.25 349.30 L 331.92 350.50 L 332.39 351.75 L 332.77 354.25 L 332.40 357.00 L 331.75 359.25 L 331.38 359.75 L 330.36 360.50 L 330.21 361.25 L 329.42 362.25 L 328.50 362.67 L 328.06 363.25 L 327.75 363.41 L 326.19 363.75 L 325.17 364.25 L 324.00 364.38 L 322.75 364.36 L 320.50 364.00 L 319.58 363.25 L 319.25 362.71 L 318.50 362.47 L 317.50 361.59 L 317.25 361.25 L 317.03 360.50 L 315.50 359.67 L 314.60 358.75 L 314.00 358.51 L 313.00 358.37 L 310.75 358.45 L 309.46 358.75 L 307.25 360.03 L 306.50 360.29 L 306.11 360.75 L 306.01 361.25 L 305.25 362.18 L 304.50 362.63 L 303.56 365.50 L 303.30 367.25 L 303.75 368.50 L 303.86 369.50 L 304.31 370.50 L 304.50 371.33 L 305.25 372.10 L 305.75 373.09 L 306.24 373.75 L 306.57 375.25 L 307.50 375.75 L 308.25 376.44 L 308.56 377.00 L 309.28 377.50 L 310.70 379.00 L 311.50 379.41 L 312.50 380.37 L 313.25 380.44 L 314.04 381.00 L 316.00 381.92 L 319.25 382.69 L 319.72 383.00 L 320.50 383.22 L 324.25 383.05 L 325.75 382.76 L 327.25 382.74 L 328.50 382.13 L 329.25 382.04 L 330.00 381.77 L 330.50 381.44 L 332.00 380.88 L 332.50 380.48 L 333.65 380.00 L 334.50 379.44 L 335.38 379.25 L 337.09 378.00 L 337.53 377.50 L 338.75 376.77 L 339.58 375.75 L 340.45 375.25 L 340.64 374.50 L 341.36 373.50 L 342.50 372.41 L 343.00 372.33 L 343.25 372.15 L 343.45 371.50 L 344.78 369.25 L 345.26 368.00 L 345.93 367.00 L 345.88 366.50 L 346.30 364.00 L 346.41 360.50 L 345.18 356.75 L 344.50 355.83 L 342.70 352.75 L 340.68 351.25 L 340.25 350.66 L 339.50 350.28 L 338.50 349.54 L 337.69 348.75 L 337.25 348.48 L 336.50 348.26 L 335.25 347.29 L 334.50 347.08 L 334.00 346.60 L 332.50 346.11 L 330.84 345.25 L 330.13 344.50 L 329.25 344.34 L 328.50 344.39 L 327.25 343.42 L 326.50 343.36 L 325.13 342.75 L 323.25 342.32 L 322.00 341.62 L 320.00 341.16 L 319.03 340.75 L 318.50 340.81 L 314.17 339.75 L 310.50 339.16 L 309.00 338.51 L 307.75 338.19 L 305.25 336.56 L 304.50 336.43 L 303.25 335.86 L 302.50 335.69 L 301.54 334.75 L 300.50 334.26 L 298.74 332.75 L 297.75 332.17 L 297.00 331.05 L 296.04 330.25 L 295.10 329.25 L 295.00 329.00 L 294.50 328.67 L 293.50 327.59 L 293.28 327.25 L 293.00 326.24 L 292.22 325.25 L 291.66 324.25 L 291.06 322.50 L 290.27 321.25 L 290.06 320.50 L 289.50 319.74 L 289.01 317.75 L 288.48 317.00 L 288.16 316.00 L 287.87 313.75 L 287.50 312.98 L 287.25 312.96 L 286.75 313.73 L 286.37 316.25 L 286.00 317.16 L 285.13 318.00 L 284.00 318.38 L 282.25 318.53 L 246.50 318.35 L 244.50 318.57 L 243.98 319.00 L 243.62 319.50 L 243.58 327.25 L 244.09 328.50 L 244.75 331.77 L 245.25 332.62 L 245.75 334.00 L 246.06 334.50 L 246.20 335.25 L 247.59 337.00 L 248.17 337.50 L 248.50 338.03 L 248.75 338.16 L 249.25 338.16 L 250.05 338.50 L 250.51 339.00 L 251.34 339.50 L 251.75 340.03 L 253.00 340.50 L 253.63 341.00 L 255.25 341.36 L 256.50 342.11 L 259.25 342.38 L 260.25 342.35 L 263.00 341.92 L 265.00 341.15 L 265.71 340.50 L 268.50 339.00 L 270.50 337.27 L 271.25 337.13 L 272.18 335.75 L 273.27 335.25 L 273.55 334.50 L 274.50 333.64 L 275.79 333.00 L 276.50 332.32 L 277.75 331.60 L 279.50 331.26 L 280.50 330.79 L 282.00 330.87 L 284.00 331.54 L 285.24 332.50 L 285.52 333.75 L 285.27 335.75 L 284.72 336.50 L 284.27 338.00 L 283.70 338.75 L 283.14 340.25 L 281.48 342.50 L 281.25 343.16 L 280.50 343.56 L 280.25 343.85 L 279.68 345.25 L 278.75 345.97 L 277.25 347.63 L 275.70 348.75 L 274.75 349.65 L 274.25 350.34 L 273.25 351.15 L 272.50 351.32 L 271.75 352.14 L 271.25 352.39 L 270.50 352.53 L 270.00 353.07 L 268.18 354.00 L 265.75 354.69 L 265.25 355.01 L 263.25 355.52 L 260.50 355.70 L 259.25 355.98 L 257.50 356.01 L 256.50 355.81 L 255.25 356.00 L 251.50 355.29 L 250.25 354.78 L 248.50 354.69 L 247.25 353.91 L 244.75 353.30 L 244.06 352.50 L 241.75 351.51 L 241.00 350.94 L 240.25 350.57 L 239.25 349.52 L 238.50 349.45 L 237.75 349.18 L 236.26 347.50 L 235.25 346.74 L 234.50 346.35 L 233.50 345.37 L 233.19 344.50 L 232.38 344.00 L 231.25 342.28 L 230.16 341.25 L 229.50 340.17 L 229.24 339.50 L 228.19 338.25 L 227.63 337.25 L 227.54 336.50 L 226.50 335.35 L 226.03 333.75 L 225.50 333.05 L 225.16 331.50 L 224.38 330.00 L 224.13 328.50 L 223.45 327.25 L 223.25 325.17 L 223.03 324.50 L 222.64 324.00 L 222.39 323.00 L 222.06 319.25 L 222.01 316.50 L 221.72 315.00 L 221.59 312.50 L 221.66 310.75 L 221.98 309.25 L 222.50 303.54 L 223.00 303.42 L 223.25 303.11 L 223.61 299.75 L 224.47 297.75 L 224.81 297.25 L 225.45 295.75 L 226.02 295.25 L 226.50 293.75 L 227.08 293.25 L 227.43 292.50 L 228.00 291.83 L 228.50 290.50 L 229.35 289.50 L 229.96 289.00 L 230.50 288.08 L 231.25 287.95 L 231.50 287.75 L 231.82 287.25 L 231.95 286.50 L 232.14 286.25 L 233.00 285.67 L 234.50 284.08 L 236.01 283.00 L 236.50 282.45 L 237.16 282.00 L 237.50 281.53 L 239.00 280.93 L 240.50 279.66 L 242.25 279.25 L 242.82 278.50 L 244.50 277.81 L 246.00 277.53 L 247.25 277.49 L 248.50 276.71 L 253.50 276.08 L 255.75 275.99 L 258.25 276.08 L 263.25 276.72 L 264.50 277.45 L 266.25 277.70 L 268.02 278.50 L 268.39 279.00 L 268.75 279.24 L 271.25 279.65 L 272.75 280.84 L 274.21 281.50 L 274.59 282.00 L 275.74 283.00 L 277.25 283.91 L 278.50 285.65 L 279.58 286.50 L 279.83 287.25 L 280.50 288.16 L 281.25 288.47 L 281.62 289.25 L 282.08 289.75 L 282.67 291.00 L 283.23 291.75 L 283.61 293.00 L 284.25 293.96 L 284.53 295.25 L 285.26 296.50 L 285.56 298.25 L 285.85 299.00 L 286.25 299.58 L 287.03 302.50 L 287.04 303.25 L 287.39 304.75 L 287.36 311.00 L 287.50 311.63 L 287.77 311.25 L 287.69 308.75 L 287.87 306.75 L 288.27 304.50 L 288.57 303.75 L 289.06 303.00 L 289.19 301.50 L 289.55 299.75 L 290.05 299.00 L 291.14 296.25 L 292.00 295.16 L 292.53 293.75 L 294.10 291.50 L 295.25 290.52 L 296.53 288.50 L 298.25 287.41 L 298.80 286.50 L 299.75 285.91 L 300.86 285.00 L 302.30 283.50 L 303.50 283.02 L 305.50 281.45 L 306.91 281.00 L 307.50 280.63 L 308.25 280.41 L 309.50 279.67 L 311.36 279.50 L 311.78 279.25 L 312.25 278.51 L 315.25 278.08 L 316.75 277.56 L 319.25 277.37 L 320.25 276.77 L 320.75 276.64 L 327.25 276.54 L 330.00 276.66 L 331.50 277.07 L 335.25 277.30 L 336.50 278.07 L 340.25 278.29 L 341.25 278.24 L 342.00 277.78 L 343.25 276.25 L 343.40 275.50 L 343.83 274.75 L 345.00 273.64 L 345.27 273.25 L 345.50 272.50 L 346.50 271.63 L 347.26 271.25 L 347.56 270.50 L 348.75 269.61 L 350.05 269.00 L 350.72 268.50 L 351.50 268.28 L 359.25 268.27 L 359.70 268.50 L 360.50 269.24 L 362.00 269.28 L 364.00 269.52 L 365.50 270.08 L 367.25 270.17 L 369.00 270.88 L 372.00 270.96 L 373.75 270.53 L 375.25 270.44 L 377.00 269.67 L 378.75 268.35 L 380.75 267.54 L 381.44 267.75 L 382.00 268.31 L 382.21 268.75 L 382.06 271.00 L 381.27 272.50 L 381.14 273.25 L 380.75 273.87 L 380.25 275.25 L 379.75 275.82 L 379.18 277.00 L 378.51 277.75 L 377.55 279.50 L 377.25 279.77 L 376.50 280.04 L 376.06 280.50 L 375.75 281.55 L 375.26 282.25 L 374.50 282.56 L 373.25 283.43 L 372.27 283.75 L 371.25 284.33 L 368.50 284.63 L 364.75 284.21 L 362.00 282.69 L 360.25 282.25 L 359.25 281.41 L 358.50 281.25 L 358.25 280.75 L 357.90 280.50 L 352.75 278.79 L 352.00 278.89 L 351.25 279.39 L 349.86 280.00 L 349.50 280.27 L 349.29 280.75 L 349.30 282.75 L 349.75 284.08 L 350.64 285.00 L 351.25 285.31 L 352.50 286.37 L 353.00 286.50 L 353.75 287.24 L 355.25 288.03 L 356.06 289.00 L 357.25 289.73 L 358.64 291.25 L 359.42 291.75 L 360.12 292.50 L 360.50 293.32 L 361.25 293.75 L 361.90 295.00 L 363.08 296.50 L 363.67 298.00 L 364.11 298.75 L 364.52 300.25 L 365.28 301.50 L 365.75 303.04 L 366.25 303.73 L 366.43 304.50 L 366.53 311.00 L 366.05 315.00 L 365.50 316.17 L 365.25 317.05 L 364.75 317.84 L 364.49 319.25 L 363.49 320.50 L 363.36 321.25 L 361.99 323.00 L 361.47 324.25 L 360.75 324.78 L 358.50 327.75 L 357.55 328.50 L 357.39 329.25 L 356.25 330.10 L 354.85 330.75 L 353.25 332.21 L 352.35 332.50 L 351.50 333.42 L 349.75 334.55 L 349.25 335.38 L 347.75 336.19 L 347.48 336.50 L 347.42 339.00 L 347.62 339.50 L 348.00 339.92 L 348.50 340.17 L 350.00 340.51 L 350.74 341.00 L 352.50 341.57 L 353.25 341.61 L 355.25 342.29 L 355.67 342.50 L 356.30 343.25 L 357.57 343.75 L 358.75 344.79 L 360.16 345.50 L 360.67 346.25 L 361.32 346.50 L 362.75 348.67 L 364.23 350.50 L 364.50 351.36 L 365.25 352.31 L 365.59 354.00 L 366.27 355.50 L 367.09 359.75 L 367.12 363.00 L 366.87 364.50 L 366.74 367.50 L 366.27 368.50 L 366.15 369.25 L 365.55 370.50 L 365.14 372.00 L 364.68 372.75 L 363.72 375.25 L 362.52 376.50 L 362.47 377.25 L 362.20 378.25 L 361.25 379.57 L 360.75 379.80 L 360.50 380.10 L 360.10 381.25 L 359.30 382.25 L 358.75 382.64 Z M 361.50 341.27 L 360.35 335.50 L 360.40 334.75 L 361.49 330.50 L 362.00 329.49 L 362.19 328.50 L 362.50 328.06 L 363.72 327.25 L 363.83 326.50 L 364.50 325.49 L 365.25 325.03 L 366.50 323.66 L 367.25 323.29 L 368.25 322.37 L 369.15 322.00 L 369.62 321.50 L 370.25 321.22 L 371.50 320.29 L 373.50 319.48 L 375.16 319.00 L 375.44 318.50 L 376.50 317.53 L 378.25 317.16 L 379.50 316.53 L 380.25 316.32 L 381.65 315.50 L 383.25 315.18 L 384.50 313.86 L 387.25 313.25 L 388.00 312.90 L 388.50 312.43 L 390.50 311.60 L 391.29 311.50 L 391.69 311.25 L 392.17 310.50 L 393.75 309.86 L 395.02 309.00 L 395.50 308.45 L 396.00 308.23 L 396.75 307.60 L 398.50 306.59 L 399.25 306.46 L 399.92 305.50 L 400.75 304.68 L 401.36 303.75 L 402.25 303.27 L 402.38 303.00 L 402.34 302.50 L 402.50 301.50 L 403.00 300.76 L 403.19 300.00 L 403.28 296.50 L 402.55 295.25 L 402.01 293.75 L 401.50 293.09 L 400.89 291.75 L 399.25 290.08 L 397.50 289.32 L 397.11 288.75 L 396.75 288.52 L 396.00 288.34 L 393.75 288.18 L 392.75 287.82 L 392.25 287.83 L 391.25 288.30 L 390.08 288.50 L 389.06 289.25 L 387.50 289.89 L 386.61 290.50 L 385.25 292.18 L 384.50 292.40 L 384.35 292.75 L 383.80 295.00 L 384.30 298.25 L 384.50 299.05 L 384.75 299.33 L 385.25 299.50 L 385.75 300.74 L 386.22 301.50 L 386.41 303.25 L 387.20 304.25 L 387.33 304.75 L 387.25 308.23 L 385.50 311.27 L 385.25 311.53 L 384.50 311.74 L 383.50 312.38 L 382.50 312.67 L 381.69 313.25 L 378.75 313.82 L 376.50 313.80 L 374.50 313.51 L 373.83 313.25 L 373.19 312.50 L 372.50 312.24 L 371.75 311.72 L 371.32 311.25 L 371.00 310.65 L 369.62 309.25 L 369.00 307.36 L 368.27 306.00 L 368.05 304.25 L 367.92 301.50 L 367.55 300.00 L 367.60 298.75 L 368.08 297.50 L 368.33 295.50 L 368.57 294.75 L 369.07 294.00 L 369.49 292.50 L 370.38 290.75 L 371.13 290.00 L 372.44 288.00 L 373.64 287.25 L 374.25 286.30 L 375.25 285.77 L 376.25 284.66 L 377.39 284.25 L 379.75 282.57 L 381.00 282.20 L 382.50 281.47 L 384.50 281.05 L 385.47 281.00 L 386.75 280.58 L 392.50 279.83 L 399.00 279.76 L 403.00 280.08 L 410.00 281.39 L 411.25 281.75 L 412.99 282.50 L 413.75 283.17 L 415.50 284.09 L 416.50 285.37 L 417.25 285.55 L 418.25 286.35 L 418.73 287.25 L 419.25 287.47 L 420.29 288.25 L 420.75 289.20 L 421.25 289.62 L 421.50 290.12 L 422.03 290.75 L 422.75 292.90 L 423.41 293.75 L 423.74 295.25 L 423.03 315.00 L 422.79 316.50 L 422.79 319.25 L 422.57 320.75 L 422.45 327.25 L 422.08 328.75 L 422.08 335.25 L 422.60 336.50 L 422.77 339.25 L 423.00 339.78 L 423.56 340.50 L 424.60 343.00 L 424.75 343.11 L 425.25 343.09 L 427.50 344.19 L 428.75 344.35 L 431.25 344.25 L 434.59 343.25 L 434.89 343.00 L 434.87 342.50 L 435.19 342.25 L 435.49 341.50 L 436.00 340.98 L 436.25 340.25 L 436.49 336.50 L 437.04 335.25 L 437.10 328.75 L 437.29 327.00 L 437.41 312.50 L 437.60 311.00 L 437.58 304.75 L 437.34 303.25 L 437.29 300.75 L 437.00 299.73 L 436.00 298.75 L 434.32 298.25 L 433.75 297.98 L 433.25 297.55 L 432.50 297.27 L 432.25 296.50 L 431.52 296.00 L 430.50 295.77 L 429.68 295.25 L 429.00 293.78 L 428.61 293.25 L 428.30 292.00 L 428.37 290.75 L 429.00 289.45 L 429.16 288.50 L 430.28 287.25 L 430.50 286.68 L 431.25 286.30 L 432.25 285.15 L 434.50 283.71 L 436.25 283.10 L 437.50 282.29 L 439.00 281.82 L 439.75 281.37 L 441.50 281.00 L 442.75 280.16 L 445.45 279.25 L 446.50 278.47 L 448.50 278.11 L 450.75 278.05 L 455.00 278.27 L 455.50 278.42 L 455.91 279.25 L 456.25 279.65 L 457.25 279.95 L 457.74 280.50 L 458.26 281.75 L 458.75 284.88 L 459.00 285.22 L 459.50 285.39 L 460.00 285.29 L 461.65 283.50 L 463.01 283.00 L 463.82 281.75 L 464.25 281.32 L 465.25 280.91 L 466.75 279.87 L 467.50 279.56 L 469.06 279.25 L 469.39 279.00 L 469.62 278.50 L 471.25 278.17 L 476.25 278.19 L 479.50 278.57 L 479.79 278.75 L 480.12 279.25 L 480.50 279.45 L 482.25 279.61 L 485.00 280.54 L 486.50 281.36 L 487.25 281.60 L 488.25 282.48 L 488.64 283.00 L 489.45 283.50 L 489.76 284.00 L 490.69 285.00 L 491.25 285.30 L 492.25 286.31 L 492.49 287.25 L 493.37 287.75 L 493.70 288.50 L 494.34 290.50 L 494.74 293.25 L 495.22 295.00 L 495.12 296.75 L 495.24 311.25 L 495.11 315.25 L 494.92 316.50 L 494.76 327.25 L 494.36 339.00 L 494.47 340.25 L 494.75 341.18 L 495.35 342.25 L 495.49 343.25 L 496.50 343.88 L 499.25 344.33 L 500.39 345.00 L 501.25 345.27 L 502.25 346.10 L 503.25 347.34 L 503.42 347.75 L 503.75 349.75 L 504.00 352.75 L 503.75 353.64 L 503.25 354.24 L 500.00 354.50 L 497.75 354.40 L 472.75 354.42 L 471.00 354.65 L 469.53 354.25 L 468.75 353.19 L 468.25 352.67 L 468.00 352.58 L 467.54 353.25 L 466.50 354.32 L 466.00 354.59 L 465.50 354.64 L 464.25 354.54 L 416.75 354.56 L 413.50 354.31 L 411.75 354.04 L 409.75 353.35 L 409.12 352.75 L 408.25 352.44 L 407.76 352.00 L 407.25 351.14 L 407.00 351.03 L 406.50 351.15 L 405.75 350.82 L 405.00 350.68 L 402.75 350.64 L 402.14 350.75 L 401.25 351.13 L 400.50 351.23 L 399.00 351.93 L 395.54 352.50 L 394.78 353.25 L 394.00 353.52 L 392.50 353.67 L 391.25 354.24 L 389.75 354.34 L 387.19 354.75 L 386.00 355.08 L 383.50 355.35 L 380.75 355.29 L 376.25 354.64 L 375.25 353.91 L 373.50 353.57 L 372.75 353.29 L 372.06 352.50 L 370.50 351.86 L 369.00 350.85 L 368.25 350.50 L 367.25 349.47 L 366.50 349.12 L 365.77 348.00 L 363.50 345.45 L 363.21 344.50 L 362.32 343.25 L 362.13 342.50 Z M 265.13 306.00 L 265.50 305.25 L 265.54 304.50 L 265.88 303.75 L 266.01 303.00 L 265.42 298.25 L 265.35 296.50 L 264.59 295.25 L 264.36 294.50 L 263.56 293.25 L 263.25 292.40 L 262.50 292.02 L 261.75 290.78 L 260.75 289.84 L 259.87 289.25 L 259.37 288.50 L 257.47 287.75 L 255.50 287.31 L 253.63 287.50 L 251.75 287.98 L 250.51 288.50 L 250.00 289.32 L 249.25 289.97 L 248.75 290.13 L 248.24 290.50 L 247.62 291.50 L 247.35 292.25 L 246.75 292.95 L 246.26 294.25 L 245.89 294.75 L 245.17 296.50 L 245.10 298.00 L 244.59 299.50 L 244.01 303.75 L 244.03 305.25 L 244.50 306.10 L 245.50 306.33 L 262.00 306.43 L 264.25 306.38 Z M 327.00 332.89 L 328.50 332.18 L 329.25 332.12 L 329.75 331.93 L 331.11 331.00 L 331.54 330.50 L 332.62 330.00 L 333.87 328.75 L 334.50 327.58 L 335.00 327.34 L 335.20 327.00 L 335.55 324.75 L 336.27 322.25 L 336.51 320.50 L 336.40 319.00 L 336.53 301.50 L 336.42 296.75 L 335.84 295.50 L 335.25 293.59 L 334.37 293.25 L 332.12 290.75 L 330.00 289.79 L 328.50 289.33 L 327.75 288.72 L 327.00 288.56 L 324.50 288.44 L 323.50 288.57 L 322.00 289.28 L 320.50 289.54 L 319.50 290.51 L 317.75 291.57 L 317.21 292.25 L 316.57 292.75 L 316.24 293.25 L 315.62 293.75 L 314.94 295.25 L 313.75 296.63 L 313.17 301.50 L 313.17 303.25 L 312.74 304.75 L 312.81 311.00 L 312.59 312.50 L 312.52 319.25 L 312.96 320.50 L 312.96 321.75 L 313.16 323.00 L 313.65 325.00 L 314.07 326.00 L 314.25 327.25 L 315.11 328.00 L 315.75 329.03 L 317.25 330.27 L 318.00 331.09 L 320.50 332.37 L 322.00 332.43 L 324.50 332.79 Z M 468.25 351.73 L 468.62 351.25 L 468.93 348.75 L 469.30 347.50 L 469.50 347.21 L 470.50 346.31 L 471.11 346.00 L 471.41 345.50 L 473.50 344.21 L 474.65 343.75 L 475.14 343.25 L 475.13 336.75 L 475.27 335.25 L 475.41 328.50 L 475.63 327.00 L 475.57 320.75 L 475.91 319.00 L 475.91 312.75 L 476.11 311.00 L 476.11 304.75 L 475.63 303.25 L 475.13 300.75 L 474.00 298.78 L 473.48 298.25 L 473.06 297.25 L 473.00 296.65 L 471.85 296.00 L 471.25 295.32 L 470.50 295.29 L 469.25 294.85 L 467.75 294.81 L 467.00 294.93 L 466.00 295.35 L 464.50 295.59 L 463.75 296.17 L 462.50 296.65 L 462.37 297.25 L 461.75 297.68 L 461.25 298.30 L 460.75 298.54 L 460.11 299.25 L 459.68 299.50 L 459.25 300.25 L 458.77 300.75 L 458.46 301.75 L 458.29 303.25 L 457.31 304.50 L 457.14 306.25 L 456.65 308.00 L 456.46 309.75 L 456.40 319.25 L 456.29 320.75 L 456.24 335.25 L 456.31 340.00 L 456.50 341.06 L 456.75 341.29 L 457.40 341.50 L 457.87 342.00 L 458.64 342.50 L 458.96 343.00 L 459.31 343.25 L 460.25 343.52 L 461.50 344.11 L 463.25 344.54 L 466.25 346.40 L 467.21 347.75 L 467.75 350.81 L 468.00 351.61 Z M 384.50 340.41 L 386.00 340.58 L 386.75 341.03 L 388.50 341.36 L 391.00 341.42 L 391.92 341.25 L 392.50 340.86 L 394.88 340.00 L 395.50 339.46 L 396.25 339.04 L 397.25 338.03 L 398.35 336.50 L 399.25 336.10 L 399.90 335.25 L 400.08 334.00 L 401.00 331.76 L 401.55 328.50 L 402.09 327.00 L 402.44 323.00 L 402.49 320.75 L 402.25 320.06 L 401.75 319.98 L 400.53 320.25 L 400.20 320.50 L 399.86 321.25 L 397.94 321.75 L 397.25 322.16 L 395.75 322.74 L 395.00 323.39 L 393.25 324.14 L 392.50 324.19 L 391.25 325.09 L 389.86 325.75 L 389.25 326.31 L 388.00 326.84 L 385.75 328.69 L 385.25 329.43 L 384.50 329.75 L 383.39 331.25 L 382.75 331.84 L 382.25 333.11 L 381.75 333.80 L 381.46 335.25 L 381.68 336.00 L 382.07 336.50 L 382.15 337.25 L 382.50 338.32 L 383.00 338.92 L 383.98 339.50 Z" fill="rgb(18,131,79)" fill-rule="evenodd"/>
  <text x="502" y="280" font-family="DejaVu Sans, Arial, Helvetica, sans-serif" font-size="18" font-weight="normal" text-anchor="middle" fill="rgb(18,131,79)">®</text>
</svg>
